<svg xmlns="http://www.w3.org/2000/svg" viewBox="0 0 80 83.47"><defs><style>.cls-1{fill:#bf9bff;}.cls-2{font-size:13px;font-family:NotoSansCJKjp-Bold-90ms-RKSJ-H, Noto Sans CJK JP;}.cls-2,.cls-4{fill:#fff;}.cls-3{letter-spacing:-0.5em;}.cls-5{fill:#f394b7;}.cls-6{fill:none;stroke:#bf9bff;stroke-linecap:round;stroke-linejoin:round;stroke-width:1.21px;}</style></defs><g id="レイヤー_2" data-name="レイヤー 2"><g id="レイヤー_1-2" data-name="レイヤー 1"><rect class="cls-1" x="0.01" width="79.98" height="78.98"/><text class="cls-2" transform="translate(7.5 53.65)">メール予約<tspan x="-6.5" y="16.21">（ビジター</tspan><tspan class="cls-3" x="58.5" y="16.21">）</tspan></text><path class="cls-4" d="M28.81,15.31a3.48,3.48,0,0,0-.39,1.61V27A3.6,3.6,0,0,0,29,28.9l6.72-7.84Z"/><path class="cls-4" d="M52.4,29.13A3.57,3.57,0,0,0,53.13,27V16.92a3.55,3.55,0,0,0-.48-1.77l-7.1,6Z"/><path class="cls-4" d="M51.5,13.93a3.57,3.57,0,0,0-1.94-.58H32A3.57,3.57,0,0,0,29.9,14l10.78,9Z"/><path class="cls-4" d="M44.26,22.21l-3,2.56a.86.86,0,0,1-1.08,0L37,22.13l-6.8,7.93a3.53,3.53,0,0,0,1.79.49H49.56a3.42,3.42,0,0,0,1.54-.36Z"/><polygon class="cls-5" points="27.31 15.3 60.12 12.79 61.26 32.84 28 37.16 27.31 15.3"/><polygon class="cls-4" points="24.75 12.74 57.56 10.23 58.7 30.28 25.44 34.6 24.75 12.74"/><polyline class="cls-6" points="26.12 14.56 40.68 23.03 55.73 12.05"/></g></g></svg>