<svg xmlns="http://www.w3.org/2000/svg" viewBox="0 0 572.96 231.5"><defs><style>.cls-1{fill:#fbae17;}.cls-2{font-size:18px;}.cls-2,.cls-6{fill:#fff;font-family:NotoSansCJKjp-Bold-90ms-RKSJ-H, Noto Sans CJK JP;}.cls-3{fill:#e2c678;}.cls-4{fill:#e29dba;}.cls-5{fill:#c6a2ff;}.cls-6{font-size:25px;}.cls-7{fill:#9ed279;}</style></defs><g id="レイヤー_2" data-name="レイヤー 2"><g id="レイヤー_1-2" data-name="レイヤー 1"><circle class="cls-1" cx="196.45" cy="85.61" r="49.93"/><circle class="cls-1" cx="269.08" cy="57.07" r="49.93"/><circle class="cls-1" cx="343" cy="75.23" r="49.93"/><circle class="cls-1" cx="186.07" cy="160.82" r="49.93"/><circle class="cls-1" cx="347.23" cy="167.51" r="49.93"/><circle class="cls-1" cx="270.37" cy="181.57" r="49.93"/><circle class="cls-1" cx="391.04" cy="118.06" r="49.93"/><circle class="cls-1" cx="141.89" cy="118.06" r="49.93"/><rect class="cls-1" x="191.01" y="72.84" width="158.07" height="95.7"/><text class="cls-2" transform="translate(203.3 89.6)">自分のペースで<tspan x="-29.16" y="31.5">働けるHURU-HURUの</tspan><tspan x="-18" y="63">ベビーシッティング</tspan></text><path class="cls-3" d="M11.09,157.22c-3.62,1.35-6.23,4.56-8,8-11,20.88,9.6,52.24,30,37.46-7.52-15.27-12.79-30.68-20.7-45.8A10.26,10.26,0,0,0,11.09,157.22Z"/><path class="cls-4" d="M52.07,184.87c10.25-3.59,17.09-14.27,17.75-25.12a20.27,20.27,0,0,0-2.28-11.53c-2.78-4.75-8-7.49-12.87-9.94a25.5,25.5,0,0,0-5.18-2.11c-.14,17.07-2.74,33.14-3.29,50.15A29.86,29.86,0,0,0,52.07,184.87Z"/><path class="cls-5" d="M434.29,40.26c.83-4.93-.64-10.65-4.93-13.21-10.73-6.38-19.94,11.49-11.21,18.53C424.26,50.51,432.94,48.3,434.29,40.26Z"/><path class="cls-5" d="M466.42,35.4c-2.51-2.59-6.38-3.94-9.54-2.07C449,38,455.66,51.65,463.15,48.59,468.38,46.46,470.52,39.63,466.42,35.4Z"/><path class="cls-5" d="M470.59,25.17a7,7,0,0,0-2.5-7.94c-5.2-3.8-14.5-.64-12.9,6.44.77,3.4,2.46,6.48,6,6.7C464.56,30.58,469.27,28.36,470.59,25.17Z"/><path class="cls-5" d="M453.73,50.92a8.19,8.19,0,0,0-3-9.37c-6.14-4.49-17.11-.76-15.22,7.6.91,4,2.9,7.64,7.09,7.9C446.62,57.3,452.18,54.67,453.73,50.92Z"/><path class="cls-5" d="M461.61,52c2.32.21,4.27,3,4.21,5.54A6,6,0,0,1,461.91,63a6.11,6.11,0,0,1-6.26-1.3c-1.74-1.66-2.46-4.66-1.34-6.62,1-1.71,3-2.29,4.82-2.6C460.4,52.26,460.31,51.89,461.61,52Z"/><polygon class="cls-1" points="425.14 10.69 435.82 8.99 442.07 6.06 447.89 3.29 452.53 0 453.17 4.18 449.23 6.71 444.69 8.98 442.03 11 445.37 19.56 441.95 20.9 438.51 13.36 431.16 14.75 425.79 14.88 425.14 10.69"/><path class="cls-5" d="M452.38,32.7a10.77,10.77,0,0,0,1.72-10.76A9.18,9.18,0,0,0,445,16.38c-6.37.69-14.75,7.59-11.21,14.57S447.69,38.45,452.38,32.7Z"/><polygon class="cls-1" points="475.48 128.61 545.26 157.81 506.57 213.47 468.32 200.74 475.48 128.61"/><text class="cls-6" transform="matrix(0.85, 0.53, -0.53, 0.85, 476.02, 161.8)">安心</text><polygon class="cls-3" points="513.64 215.6 519.58 219.32 563.7 171.43 552.95 164.11 513.64 215.6"/><polygon class="cls-5" points="458.27 200.41 450.26 197.18 455.39 129.6 467.37 126.48 458.27 200.41"/><polygon class="cls-5" points="533.2 215.46 565.87 179.28 572.97 189.62 533.2 215.46"/><path class="cls-7" d="M146.9,56.37a23.42,23.42,0,0,0,.75-3.78,23.12,23.12,0,0,0-35.55-22,23.1,23.1,0,0,0-41,18.07,23.12,23.12,0,1,0,4,45.73,23.11,23.11,0,0,0,43.83-2,23.12,23.12,0,1,0,28-36Z"/></g></g></svg>