<svg xmlns="http://www.w3.org/2000/svg" viewBox="0 0 380.34 157.08"><defs><style>.cls-1{fill:#f0a900;}.cls-2{fill:#a4d373;}.cls-3{fill:#bf9bff;}.cls-4{fill:#dcc470;}.cls-5{fill:#d896b7;}.cls-6{fill:#fff;}.cls-7{fill:#fbae17;}.cls-8{fill:#e2c678;}</style></defs><g id="レイヤー_2" data-name="レイヤー 2"><g id="レイヤー_1-2" data-name="レイヤー 1"><path class="cls-1" d="M218.87,136.32l15,4.83s10-33.91,15.93-39.11c8.21-7.24,22.69-7.24,29-4.34s15.45,12.07,15,22.21-6.76,30.9-6.76,30.9l18.35,6.27,18.34-58.9L241.08,70.66Z"/><polygon class="cls-2" points="230.94 59.55 338.13 94.32 312.54 18.51 230.94 59.55"/><path class="cls-1" d="M94.48,122.91A30.26,30.26,0,1,1,64.22,92.65,30.26,30.26,0,0,1,94.48,122.91ZM64.22,97.34a25.57,25.57,0,1,0,25.57,25.57A25.57,25.57,0,0,0,64.22,97.34Z"/><path class="cls-1" d="M64.44,120.37s9-14.57,10-16.32-5.39-3.9-10.48-3.5c-4.86.39-10.1,2.53-9.72,3.5S64.44,120.37,64.44,120.37Z"/><path class="cls-3" d="M62,121.7S51,108.61,49.6,107.14,44.22,111.07,43,116c-1.13,4.74-.72,10.39.32,10.32S62,121.7,62,121.7Z"/><path class="cls-4" d="M62.55,124.41s-15.88,6.48-17.69,7.32,2.07,6.33,6.43,9c4.16,2.54,9.66,3.89,9.91,2.88S62.55,124.41,62.55,124.41Z"/><path class="cls-5" d="M65.29,124.75s1.25,17.1,1.49,19.08,6.66,0,10.54-3.33c3.7-3.17,6.69-8,5.8-8.54S65.29,124.75,65.29,124.75Z"/><path class="cls-2" d="M66.46,122.25s16.64,4.09,18.61,4.48,2-6.34.08-11.06c-1.87-4.5-5.52-8.83-6.33-8.16S66.46,122.25,66.46,122.25Z"/><path class="cls-3" d="M191.82,47.34c2-4.77-.16-10.65-4.32-13.7-9-6.56-25-1.09-22.25,11.11,1.33,5.88,4.24,11.18,10.37,11.56C181.42,56.67,189.55,52.84,191.82,47.34Z"/><path class="cls-3" d="M201.93,97.88c6.23-15.1-.48-33.71-13.66-43.35-28.4-20.78-79.15-3.48-70.41,35.16,4.21,18.59,13.41,35.39,32.81,36.59C169,127.42,194.75,115.27,201.93,97.88Z"/><path class="cls-3" d="M139.58,58.83a14.39,14.39,0,0,0,2.29-14.34,12.27,12.27,0,0,0-12.16-7.41c-8.49.92-19.66,10.11-14.94,19.41S133.32,66.49,139.58,58.83Z"/><path class="cls-6" d="M179,60.8c3.09.28,5.68,4,5.6,7.38a8,8,0,0,1-5.21,7.25,8.14,8.14,0,0,1-8.33-1.72c-2.32-2.22-3.29-6.22-1.79-8.83,1.3-2.28,3.95-3,6.43-3.46C177.41,61.14,177.3,60.65,179,60.8Z"/><path class="cls-6" d="M139.12,65.58c3.1.27,5.68,4,5.61,7.37a8,8,0,0,1-5.21,7.25,8.13,8.13,0,0,1-8.34-1.72c-2.32-2.21-3.29-6.21-1.79-8.83,1.31-2.28,4-3,6.43-3.45C137.5,65.92,137.39,65.42,139.12,65.58Z"/><path class="cls-3" d="M182.87,66.1a3.84,3.84,0,0,0-1.39-4.39c-2.88-2.11-8-.36-7.14,3.56.43,1.88,1.36,3.59,3.33,3.71S182.14,67.86,182.87,66.1Z"/><path class="cls-3" d="M142,70.21a3.85,3.85,0,0,0-1.38-4.39c-2.88-2.11-8-.36-7.14,3.56.43,1.88,1.36,3.59,3.33,3.71S141.23,72,142,70.21Z"/><path class="cls-2" d="M172.84,91.26c1.52-3.68-.12-8.22-3.34-10.58-6.93-5.07-19.31-.85-17.18,8.58,1,4.54,3.27,8.64,8,8.93C164.81,98.47,171.08,95.51,172.84,91.26Z"/><path class="cls-4" d="M147.14,104.32a10.61,10.61,0,0,1-2.74-6.63c-1.45.07-2.9.16-4.36.28,0,.34-.09.68-.11,1-.14,3.07,1.4,6,3.34,8.37,11.89,14.57,41.31,9.24,36.81-10.29l-2.53.12C179.66,112.12,156.61,115.93,147.14,104.32Z"/><polygon class="cls-7" points="340.01 0 348.36 11.21 359.89 6.08 352.95 19.07 360.49 27.78 346.75 27.44 340.62 34.93 338.3 23.28 329.6 17.7 340.42 13.48 340.01 0"/><polygon class="cls-8" points="355.79 48.94 365.52 59.1 376.76 52.15 370.93 65.94 380.34 74.04 365.64 75.75 360.48 85.11 356.17 73.24 348 68.95 357.77 62.76 355.79 48.94"/><polygon class="cls-8" points="7.79 71.94 17.52 82.1 28.76 75.15 22.93 88.94 32.34 97.04 17.64 98.75 12.48 108.11 8.17 96.24 0 91.95 9.77 85.76 7.79 71.94"/></g></g></svg>