<svg xmlns="http://www.w3.org/2000/svg" viewBox="0 0 21.35 21.82"><defs><style>.cls-1{fill:#bf9bff;}.cls-2{fill:#f0a900;}.cls-3{fill:#a4d373;}</style></defs><g id="レイヤー_2" data-name="レイヤー 2"><g id="レイヤー_1-2" data-name="レイヤー 1"><path class="cls-1" d="M1.39,13.77a6.78,6.78,0,0,0-.69.62,2.22,2.22,0,0,0-.55,2.36c.63,1.37,2.14,2.85,3.67,2.92S7.74,19.15,8,17.23a5.83,5.83,0,0,0-1-3C5.63,12.16,3.13,12.46,1.39,13.77Z"/><path class="cls-2" d="M8,2.11a5.33,5.33,0,0,0,0,.8C8.17,5.15,8.62,8,11.48,8.1c4.36.2,4.89-3.47,3-6.61a3.46,3.46,0,0,0-.87-1A3.86,3.86,0,0,0,11,0a3.34,3.34,0,0,0-2.66,1A2.16,2.16,0,0,0,8,2.11Z"/><path class="cls-3" d="M15.39,15.81a2.76,2.76,0,0,0-1.07.93,2.43,2.43,0,0,0-.22,1.68,4.16,4.16,0,0,0,2.21,3,3.55,3.55,0,0,0,5-3.59C21,14.94,17.48,14.6,15.39,15.81Z"/></g></g></svg>