<svg xmlns="http://www.w3.org/2000/svg" viewBox="0 0 336.59 186.9"><defs><style>.cls-1{fill:#bf9bff;}.cls-2{fill:#f0a900;}.cls-3{fill:#a4d373;}.cls-4{fill:#dcc470;}.cls-5{fill:#d896b7;}.cls-6{fill:#fff;}</style></defs><g id="レイヤー_2" data-name="レイヤー 2"><g id="レイヤー_1-2" data-name="レイヤー 1"><path class="cls-1" d="M26.14,53.64c1.11-6.56-.86-14.19-6.58-17.59C5.27,27.54-7,51.35,4.63,60.73,12.77,67.3,24.34,64.35,26.14,53.64Z"/><path class="cls-1" d="M69,47.17c-3.35-3.45-8.51-5.25-12.71-2.75-10.51,6.24-1.62,24.4,8.35,20.33C71.57,61.9,74.41,52.8,69,47.17Z"/><path class="cls-1" d="M74.5,33.54C76,29.85,74.39,25.31,71.17,23c-6.93-5.07-19.32-.85-17.18,8.58,1,4.54,3.27,8.64,8,8.93C66.48,40.75,72.75,37.78,74.5,33.54Z"/><path class="cls-1" d="M52,67.84c1.8-4.34-.13-9.7-3.93-12.48-8.18-6-22.8-1-20.28,10.13C29,70.84,31.69,75.68,37.28,76,42.57,76.35,50,72.85,52,67.84Z"/><path class="cls-1" d="M62.55,69.3c3.09.28,5.67,4,5.6,7.38a8,8,0,0,1-5.21,7.25A8.16,8.16,0,0,1,54.6,82.2C52.28,80,51.32,76,52.81,73.37c1.31-2.28,4-3,6.43-3.45C60.92,69.64,60.81,69.15,62.55,69.3Z"/><polygon class="cls-2" points="13.95 14.25 28.17 11.98 36.5 8.07 44.26 4.38 50.44 0 51.3 5.58 46.04 8.94 39.99 11.96 36.45 14.66 40.9 26.07 36.34 27.85 31.76 17.81 21.97 19.66 14.81 19.83 13.95 14.25"/><path class="cls-1" d="M50.25,43.57a14.37,14.37,0,0,0,2.29-14.34,12.28,12.28,0,0,0-12.16-7.41c-8.48.92-19.65,10.12-14.94,19.42S44,51.24,50.25,43.57Z"/><path class="cls-2" d="M217.33,133.05l15,4.83s10-33.91,15.93-39.11c8.21-7.24,22.7-7.24,29-4.35s15.45,12.07,15,22.21-6.76,30.9-6.76,30.9l18.35,6.28,18.35-58.9L239.54,67.39Z"/><polygon class="cls-3" points="229.4 56.28 336.59 91.04 311 15.24 229.4 56.28"/><path class="cls-2" d="M80,156.63a30.26,30.26,0,1,1-30.26-30.26A30.26,30.26,0,0,1,80,156.63ZM49.69,131.07a25.57,25.57,0,1,0,25.56,25.56A25.57,25.57,0,0,0,49.69,131.07Z"/><path class="cls-2" d="M49.9,154.09s9-14.56,10-16.31-5.4-3.91-10.49-3.5c-4.86.39-10.1,2.53-9.71,3.5S49.9,154.09,49.9,154.09Z"/><path class="cls-1" d="M47.48,155.43s-11.06-13.09-12.42-14.56-5.38,3.93-6.57,8.9c-1.13,4.74-.72,10.38.33,10.31S47.48,155.43,47.48,155.43Z"/><path class="cls-4" d="M48,158.14s-15.87,6.48-17.69,7.32,2.07,6.33,6.43,9c4.16,2.54,9.66,3.9,9.92,2.88S48,158.14,48,158.14Z"/><path class="cls-5" d="M50.75,158.48s1.25,17.1,1.49,19.08,6.66,0,10.55-3.33c3.7-3.17,6.68-8,5.8-8.54S50.75,158.48,50.75,158.48Z"/><path class="cls-3" d="M51.92,156s16.65,4.09,18.61,4.47,2-6.33.08-11c-1.87-4.5-5.52-8.83-6.32-8.16S51.92,156,51.92,156Z"/><path class="cls-1" d="M187.28,39.07c2-4.77-.15-10.65-4.32-13.7-9-6.56-25-1.1-22.24,11.11C162.05,42.35,165,47.66,171.08,48,176.89,48.4,185,44.56,187.28,39.07Z"/><path class="cls-1" d="M197.39,89.61c6.23-15.1-.48-33.71-13.66-43.36-28.39-20.77-79.15-3.47-70.41,35.17C117.53,100,126.73,116.8,146.13,118,164.5,119.14,190.22,107,197.39,89.61Z"/><path class="cls-1" d="M135,50.56a14.37,14.37,0,0,0,2.29-14.34,12.27,12.27,0,0,0-12.16-7.42c-8.48.93-19.65,10.12-14.94,19.42S128.78,58.22,135,50.56Z"/><path class="cls-6" d="M174.5,52.53c3.09.28,5.67,4,5.6,7.38a8,8,0,0,1-5.21,7.25,8.16,8.16,0,0,1-8.34-1.73c-2.32-2.21-3.28-6.21-1.79-8.83,1.31-2.28,4-3,6.43-3.45C172.87,52.87,172.76,52.38,174.5,52.53Z"/><path class="cls-6" d="M134.59,57.3c3.09.28,5.67,4,5.6,7.38A8,8,0,0,1,135,71.93a8.16,8.16,0,0,1-8.34-1.72c-2.32-2.21-3.28-6.22-1.79-8.83,1.31-2.28,4-3.05,6.43-3.46C133,57.64,132.85,57.15,134.59,57.3Z"/><path class="cls-1" d="M178.33,57.83a3.85,3.85,0,0,0-1.39-4.4c-2.87-2.1-8-.35-7.13,3.57.42,1.88,1.36,3.58,3.32,3.71S177.6,59.59,178.33,57.83Z"/><path class="cls-1" d="M137.42,61.94a3.84,3.84,0,0,0-1.38-4.4c-2.88-2.1-8-.35-7.14,3.57.43,1.88,1.36,3.59,3.33,3.71S136.7,63.7,137.42,61.94Z"/><path class="cls-3" d="M168.3,83c1.52-3.68-.12-8.23-3.34-10.58-6.92-5.07-19.31-.85-17.18,8.58,1,4.54,3.27,8.64,8,8.93C160.27,90.2,166.55,87.23,168.3,83Z"/><path class="cls-4" d="M142.6,96.05a10.66,10.66,0,0,1-2.74-6.63c-1.45.07-2.9.16-4.36.28-.05.34-.09.68-.11,1-.14,3.07,1.4,6,3.35,8.37,11.89,14.57,41.3,9.24,36.81-10.3l-2.54.13C175.12,103.85,152.07,107.66,142.6,96.05Z"/><path class="cls-5" d="M183.79,147.34c-4.4,5-4.67,12.29-4.11,18.9.26,3.12.65,6.24,1.17,9.33.58,3.46,1.76,7.42,5,8.67,1.84.7,3.89.32,5.81-.12,6.79-1.56,13.61-4,18.67-8.79s8-12.34,5.68-18.92C211.71,144,193.63,136.23,183.79,147.34Z"/><polygon class="cls-3" points="195.96 145.73 192.02 150.32 198.91 149.68 203.1 154.3 203.44 147.45 208.85 143.75 202.21 142.49 201.67 135.09 197.88 140.81 190.57 139.96 195.96 145.73"/><path class="cls-6" d="M204.77,160.4a.91.91,0,0,0,0,1.36,1.08,1.08,0,0,0,1.41-.07,1.29,1.29,0,0,0,.23-1.44,1.77,1.77,0,0,0-1.21-.22"/><path class="cls-6" d="M205.29,166.13a.7.7,0,1,0,0,1.28,1.22,1.22,0,0,0,.07-1.07"/><path class="cls-6" d="M210.48,162.9a.7.7,0,1,0,0,1.29,1.24,1.24,0,0,0,.07-1.08"/><path class="cls-6" d="M200.32,170.33a.57.57,0,0,0,.6.71.65.65,0,0,0,.47-.85.72.72,0,0,0-.95-.33"/><path class="cls-6" d="M205.78,172.79a.75.75,0,0,0-1.2.69.7.7,0,0,0,0,.32.73.73,0,0,0,1.08.22C206.33,173.52,206.16,173,205.78,172.79Z"/><path class="cls-6" d="M200.34,174.48a.89.89,0,0,1,1-.07.71.71,0,0,1,.24.93.76.76,0,0,1-.76.32,1.26,1.26,0,0,1-.72-.45C199.91,175,200.11,174.66,200.34,174.48Z"/></g></g></svg>