<svg xmlns="http://www.w3.org/2000/svg" xmlns:xlink="http://www.w3.org/1999/xlink" viewBox="0 0 277.84 174.18"><defs><style>.cls-1,.cls-12{fill:none;}.cls-2{fill:#251e1b;}.cls-3{isolation:isolate;}.cls-4{fill:#d896b7;}.cls-5{fill:#fff;}.cls-6{fill:#333;}.cls-7{fill:#606060;}.cls-8{fill:#8f76bf;}.cls-9{fill:#bf9bff;}.cls-10{fill:#fbedcd;}.cls-11{fill:#a4d373;}.cls-12{stroke:#fff;stroke-miterlimit:10;stroke-width:3px;}.cls-13{fill:#dcc470;}.cls-14{fill:#f0a900;}.cls-15{fill:#f394b7;}.cls-16{fill:#9e9e9e;}.cls-17{fill:#494949;}.cls-18{opacity:0.8;mix-blend-mode:multiply;fill:url(#_10_dpi_40_);}</style><pattern id="_10_dpi_40_" data-name="10 dpi 40%" width="28.8" height="28.8" patternTransform="translate(-8.67 27.27) scale(0.2)" patternUnits="userSpaceOnUse" viewBox="0 0 28.8 28.8"><rect class="cls-1" width="28.8" height="28.8"/><path class="cls-2" d="M28.8,31.68a2.88,2.88,0,1,0-2.88-2.88A2.88,2.88,0,0,0,28.8,31.68Z"/><path class="cls-2" d="M14.4,31.68a2.88,2.88,0,1,0-2.88-2.88A2.88,2.88,0,0,0,14.4,31.68Z"/><path class="cls-2" d="M28.8,17.28a2.88,2.88,0,1,0-2.88-2.88A2.88,2.88,0,0,0,28.8,17.28Z"/><path class="cls-2" d="M14.4,17.28a2.88,2.88,0,1,0-2.88-2.88A2.88,2.88,0,0,0,14.4,17.28Z"/><path class="cls-2" d="M7.2,24.48A2.88,2.88,0,1,0,4.32,21.6,2.88,2.88,0,0,0,7.2,24.48Z"/><path class="cls-2" d="M21.6,24.48a2.88,2.88,0,1,0-2.88-2.88A2.88,2.88,0,0,0,21.6,24.48Z"/><path class="cls-2" d="M7.2,10.08A2.88,2.88,0,1,0,4.32,7.2,2.88,2.88,0,0,0,7.2,10.08Z"/><path class="cls-2" d="M21.6,10.08A2.88,2.88,0,1,0,18.72,7.2,2.88,2.88,0,0,0,21.6,10.08Z"/><path class="cls-2" d="M0,31.68A2.88,2.88,0,0,0,2.88,28.8,2.88,2.88,0,0,0,0,25.92a2.88,2.88,0,0,0,0,5.76Z"/><path class="cls-2" d="M0,17.28A2.88,2.88,0,0,0,2.88,14.4,2.88,2.88,0,0,0,0,11.52a2.88,2.88,0,0,0,0,5.76Z"/><path class="cls-2" d="M28.8,2.88A2.88,2.88,0,0,0,31.68,0a2.88,2.88,0,0,0-5.76,0A2.88,2.88,0,0,0,28.8,2.88Z"/><path class="cls-2" d="M14.4,2.88A2.88,2.88,0,0,0,17.28,0a2.88,2.88,0,0,0-5.76,0A2.88,2.88,0,0,0,14.4,2.88Z"/><path class="cls-2" d="M0,2.88A2.88,2.88,0,0,0,2.88,0,2.88,2.88,0,0,0,0-2.88,2.88,2.88,0,0,0-2.88,0,2.88,2.88,0,0,0,0,2.88Z"/></pattern></defs><g class="cls-3"><g id="レイヤー_2" data-name="レイヤー 2"><g id="レイヤー_1-2" data-name="レイヤー 1"><path class="cls-4" d="M150.89,109l-6.69,2.37a2.56,2.56,0,0,0-2.35,3l.51,14.07q11.8.51,23.64.2a2.13,2.13,0,0,0,1.27-.31,2,2,0,0,0,.61-1.35c1.29-7.32,2.59-23.53-3.74-29a6.88,6.88,0,0,0-8.83-.26C153,99.37,151.31,108.85,150.89,109Z"/><path class="cls-5" d="M153.64,109.19l7.88-.18c-.48,0-.15-9-3.4-9C155.61,100.07,154.09,107.27,153.64,109.19Z"/><polygon class="cls-6" points="169.5 161.18 156 163.68 154.5 166.68 157 169.18 162 170.68 171.5 169.68 177 169.18 176.6 160.61 169.5 161.18"/><polygon class="cls-7" points="162.5 164.68 149 167.18 147.5 170.18 150 172.68 155 174.18 164.5 173.18 170 172.68 169.6 164.11 162.5 164.68"/><polygon class="cls-8" points="181 99.52 177.5 165.99 166.5 162.99 167.78 95.78 181 99.52"/><polygon class="cls-9" points="157.92 99.72 160 167.18 170 167.18 177.5 94.13 157.92 99.72"/><path class="cls-10" d="M164.92,43.12a82.21,82.21,0,0,1-.4,14.29l11-.06-2.76-15.5-5.18.76"/><polygon class="cls-11" points="3.5 12.18 109.5 5.68 110.5 162.18 0 165.18 3.5 12.18"/><polygon class="cls-12" points="93.5 54.68 93.5 23.68 73 26.18 71.5 49.18 93.5 54.68"/><polygon class="cls-12" points="22.5 53.68 24 26.18 44.5 23.68 44.5 54.68 22.5 53.68"/><polygon class="cls-12" points="93.5 142.68 93.5 111.68 73 114.18 72.5 145.68 93.5 142.68"/><polygon class="cls-12" points="43.5 150.68 44.5 111.68 24 114.18 23.5 147.68 43.5 150.68"/><line class="cls-12" x1="18" y1="71.18" x2="94.5" y2="68.18"/><line class="cls-12" x1="17" y1="97.18" x2="96" y2="91.68"/><path class="cls-13" d="M86.56,87.61c-3.33-2.26-5.45-6.73-2.69-10.53a8.2,8.2,0,0,1,11.24-1.44,4.61,4.61,0,0,1,1.3,1.48,6.07,6.07,0,0,1,.5,2.32c.17,2.3.19,4.76-1,6.73C93.63,89.92,89.59,89.67,86.56,87.61Z"/><path class="cls-7" d="M159,12c-4.17,4.13-5.47,10.34-5.83,16.2-.47,7.7,1,16.59,7.54,20.68,1.15-1.68,5.19-.24,5-2.26,1-1.29,2.86,1.32,4.43.89.68-.18,1.09-.92,1.76-1.17,1.22-.46,2.3.87,3.47,1.45,1.67.84,3.8,0,5-1.39a12.77,12.77,0,0,0,2.28-5.09c1.74-6.24,3.4-12.69,2.63-19.11C183.76,8.79,169.46,1.6,159,12Z"/><path class="cls-14" d="M158.16,56.73c-5.23,4.9-6,12.53-6.41,19.48a100.53,100.53,0,0,0-.23,13.88,7.92,7.92,0,0,0,1.11,4,3.42,3.42,0,0,0,3.8,1.43l.14,6.57a164.09,164.09,0,0,0,26.41,1l2.55-33.64c.26-3.48.52-7-.6-10.38C181.41,48.6,165,50.36,158.16,56.73Z"/><polygon class="cls-15" points="250.29 65.75 262.96 58.35 271.82 50.2 276.11 40.8 277.83 23.53 272.72 10.85 266.1 3.25 251.11 0 237.15 0.04 219.63 0.09 209 9.26 200.91 21.47 198.66 32.14 198.19 44.33 200.5 54.73 208.14 62.32 219.83 65.84 235.32 66.81 250.29 65.75"/><polygon class="cls-5" points="249.08 62.56 260.5 55.89 268.48 48.54 272.34 40.07 273.9 24.51 269.29 13.08 263.32 6.24 249.81 3.3 237.23 3.34 221.45 3.39 211.87 11.65 204.58 22.66 202.55 32.27 202.12 43.25 204.21 52.62 211.09 59.47 221.63 62.64 235.58 63.51 249.08 62.56"/><polygon class="cls-15" points="200.89 49.02 189.26 58.18 206.05 56.53 200.89 49.02"/><polygon class="cls-15" points="208 29.84 212.08 24.85 215.25 23.95 219.33 49.32 213.89 50.23 212.53 30.75 209.36 34.37 208 29.84"/><polygon class="cls-15" points="224.77 23.04 222.5 24.85 221.14 31.2 221.59 39.81 223.86 44.34 226.13 46.15 229.3 46.15 235.19 44.79 236.09 38.9 237 32.1 235.19 26.21 233.83 23.04 230.66 22.14 224.77 23.04"/><polygon class="cls-5" points="228.84 27.12 225.67 27.57 225.67 33.01 225.67 38.9 227.48 40.71 229.3 40.71 231.11 39.35 233.38 33.92 232.92 28.93 228.84 27.12"/><rect class="cls-15" x="241" y="32.18" width="2.5" height="11.5"/><polygon class="cls-15" points="243 34.18 243.5 32.18 247 36.68 246 38.18 243 34.18"/><rect class="cls-15" x="248.5" y="32.18" width="2.5" height="11.5"/><polygon class="cls-15" points="249 34.18 248.5 32.18 245 36.68 246 38.18 249 34.18"/><polygon class="cls-15" points="253 37.68 255 37.18 255 43.68 253 43.68 253 37.68"/><polygon class="cls-15" points="253 34.68 255 34.18 255 32.18 253 32.18 253 34.68"/><rect class="cls-15" x="257" y="32.18" width="2" height="11.5"/><rect class="cls-15" x="263.5" y="32.18" width="2" height="11.5"/><polygon class="cls-15" points="259 32.18 265 42.18 263.5 43.68 258 34.68 259 32.18"/><polygon class="cls-16" points="118.5 61.68 120.5 61.68 123.5 60.68 126 62.18 126 73.18 119 74.68 118.5 61.68"/><circle class="cls-17" cx="124.25" cy="70.93" r="1.25"/><rect class="cls-18" x="120" y="63.68" width="5" height="5.5"/><polygon class="cls-7" points="130.25 39.04 129.64 39.79 129.66 41.96 130.42 44.73 131.49 46.04 132.36 46.47 133.39 46.24 135.21 45.37 135.08 43.39 134.88 41.11 133.87 39.32 133.2 38.39 132.1 38.32 130.25 39.04"/><polygon class="cls-5" points="131.87 40.07 130.87 40.45 131.26 42.22 131.69 44.14 132.41 44.6 133 44.47 133.49 43.89 133.83 41.96 133.33 40.37 131.87 40.07"/><polygon class="cls-7" points="108 43.77 107.47 44.41 107.49 46.27 108.14 48.65 109.06 49.78 109.81 50.14 110.69 49.95 112.25 49.2 112.14 47.5 111.98 45.54 111.11 44.01 110.53 43.2 109.58 43.15 108 43.77"/><polygon class="cls-5" points="109.39 44.65 108.53 44.98 108.86 46.5 109.23 48.14 109.85 48.54 110.36 48.43 110.78 47.93 111.08 46.27 110.64 44.91 109.39 44.65"/><rect class="cls-7" x="107.46" y="45.44" width="1.92" height="8.83" transform="translate(-8.21 24.61) rotate(-12.48)"/><polygon class="cls-7" points="124.34 40.15 123.82 40.8 123.83 42.65 124.49 45.03 125.4 46.16 126.15 46.52 127.03 46.33 128.6 45.58 128.49 43.88 128.32 41.92 127.45 40.39 126.87 39.59 125.93 39.53 124.34 40.15"/><polygon class="cls-5" points="125.73 41.04 124.87 41.36 125.21 42.88 125.57 44.53 126.19 44.92 126.7 44.81 127.12 44.32 127.42 42.66 126.98 41.29 125.73 41.04"/><rect class="cls-7" x="123.8" y="41.83" width="1.92" height="8.83" transform="translate(-7.05 28.06) rotate(-12.48)"/><polygon class="cls-7" points="113.64 47.53 114.79 46.95 115.66 50.91 114.45 51.17 113.64 47.53"/><polygon class="cls-7" points="113.23 45.7 114.38 45.13 114.11 43.91 112.9 44.18 113.23 45.7"/><rect class="cls-7" x="116.09" y="43.43" width="1.25" height="7.16" transform="translate(-7.4 26.34) rotate(-12.48)"/><rect class="cls-7" x="120.04" y="42.55" width="1.25" height="7.16" transform="translate(-7.12 27.17) rotate(-12.48)"/><polygon class="cls-7" points="116.55 43.38 121.54 48.65 120.83 49.76 116.28 45.03 116.55 43.38"/><rect class="cls-7" x="136.84" y="37.61" width="1.25" height="7.16" transform="translate(-5.65 30.68) rotate(-12.48)"/><rect class="cls-7" x="140.79" y="36.73" width="1.25" height="7.16" transform="translate(-5.37 31.52) rotate(-12.48)"/><polygon class="cls-7" points="137.3 37.56 142.29 42.83 141.58 43.94 137.03 39.21 137.3 37.56"/><polygon class="cls-16" points="145.11 42.25 140.92 53.01 142.72 53.61 147.5 42.25 145.11 42.25"/><polygon class="cls-16" points="108.64 60.18 109.84 58.39 102.89 46.18 99.68 48.23 108.64 60.18"/></g></g></g></svg>