<svg xmlns="http://www.w3.org/2000/svg" viewBox="0 0 290.31 165.25"><defs><style>.cls-1{fill:none;stroke:#b0aca9;stroke-width:1.5px;}.cls-1,.cls-6{stroke-miterlimit:10;}.cls-2,.cls-7{fill:#606060;}.cls-3{fill:#f0a900;}.cls-4{fill:#bf9bff;}.cls-5{fill:#dcc470;}.cls-6{fill:#fff;stroke:#f0a900;}.cls-7{font-size:25px;font-family:TheLittleBirdFONT, "TheLittleBirdFONT 90ms-RKSJ-H";letter-spacing:-0.24em;}.cls-8{letter-spacing:-0.15em;}.cls-9{fill:#fbedcd;}</style></defs><g id="レイヤー_2" data-name="レイヤー 2"><g id="レイヤー_1-2" data-name="レイヤー 1"><polygon class="cls-1" points="109.67 1.25 204.5 0.75 192.32 143.75 95.92 143.75 109.67 1.25"/><polygon class="cls-2" points="125.46 20.91 184.24 27.97 183.06 34.78 123.37 26.25 125.46 20.91"/><polygon class="cls-2" points="124.08 42.59 183.77 50.41 183.06 56.1 119.93 50.65 124.08 42.59"/><polygon class="cls-2" points="121.24 60.36 180.22 67.47 180.22 73.15 121.24 66.75 121.24 60.36"/><polygon class="cls-2" points="121.46 83.5 180.91 87.38 179.93 93.66 120.81 89.96 121.46 83.5"/><polygon class="cls-3" points="127.5 103.75 138.5 103.75 155 103.75 174 103.75 176.5 108.25 176.5 115.75 164 118.75 125.5 116.25 120 107.75 127.5 103.75"/><polygon class="cls-4" points="113 101.75 97.5 86.25 93 92.25 113 101.75"/><polygon class="cls-4" points="111 109.75 88 108.25 88 114.75 112.5 114.25 111 109.75"/><polygon class="cls-5" points="114 121.75 89 124.75 94 131.25 114 121.75"/><path class="cls-6" d="M193.5,95.25,190.18,71.5l.83-8.78,13.47-11.64L247.23,35.7l29.61-.54L289.77,71,280.5,88.25,229,104.75l-22.5-2.5a226.83,226.83,0,0,1-24.1,8.63Z"/><text class="cls-7" transform="translate(200.59 90.38) rotate(-14.82)">申<tspan class="cls-8" x="19" y="0">し込み</tspan></text><polygon class="cls-9" points="46.17 87.44 46.59 95.5 47.02 103.56 61.93 98.02 76.73 91.45 80.84 91.36 84.56 92.82 86.72 96.22 85.97 99.99 84.62 101.14 83.03 101.99 74.54 106.07 66.06 110.16 70.75 112.94 70.98 118.38 74.49 118.69 77.07 121.09 77.42 124.6 75.53 127.58 78.86 130.44 78.43 135.28 74.87 138.53 70.26 140.48 46.73 149.47 22.83 156.86 14.24 139.34 8.24 123.02 23.41 115.23 31.85 101.48 33.43 89.31 37.53 78.79 44.06 79.99 46.17 87.44"/><polygon class="cls-3" points="0 122.25 14 115.25 33.65 156.25 20 165.25 0 122.25"/></g></g></svg>