<svg xmlns="http://www.w3.org/2000/svg" viewBox="0 0 739.76 82.31"><defs><style>.cls-1{fill:#f0a900;}.cls-2{fill:#a4d373;}.cls-3{fill:#fff;}</style></defs><g id="レイヤー_2" data-name="レイヤー 2"><g id="レイヤー_1-2" data-name="レイヤー 1"><path class="cls-1" d="M3,48.61c17.88,4.11,17.78,1.17,36.13,1.17s18.34,1,36.69,1,18.35,2.48,36.7,2.48,18.35-2.82,36.69-2.82,18.35,2.28,36.7,2.28,18.35,1.19,36.7,1.19S241,49,259.34,49s18.35-.25,36.7-.25,18.35,2.43,36.7,2.43,18.35-3.69,36.7-3.69,18.35,7.34,36.7,7.34,18.35-4.86,36.7-4.86,18.35-2.84,36.7-2.84S497.89,55,516.23,55s18.36-5.51,36.71-5.51,18.35,1.42,36.7,1.42S608,52,626.34,52s18.35,1.1,36.71,1.1,18.35-.41,36.7-.41,19,3.42,36.93-.69c4.11-.95,4.11-9.38,0-10.33-17.88-4.11-18.57.45-36.91.45s-18.35,1.06-36.7,1.06-18.34-2-36.69-2-18.35,0-36.7,0-18.35-1.06-36.7-1.06-18.35,6.4-36.7,6.4-18.35-1.87-36.7-1.87-18.35-.73-36.7-.73S424.54,43,406.19,43s-18.35-4.52-36.7-4.52-18.35,6.64-36.7,6.64-18.36-6.75-36.71-6.75-18.34,6-36.69,6-18.35.91-36.7.91-18.35,1-36.7,1-18.35-7.85-36.7-7.85-18.36,1-36.71,1-18.35,3.42-36.7,3.42-18.36,3-36.71,3S21,43,2.79,45.26C-.85,45.71-1.09,47.66,3,48.61Z"/><path class="cls-1" d="M713.23,34.51a14.41,14.41,0,0,0,4.5.6,10.3,10.3,0,0,0,3.88-1.26,18.21,18.21,0,0,0,8.44-9.6,24.34,24.34,0,0,0,1.25-5.2c.38-2.75.4-5.72-1-8.12-2-3.3-6-4.56-9.81-5.36-10.56-2.23-17.31,1.72-21.13,11.85C695.71,27.06,705.13,32.54,713.23,34.51Z"/><polygon class="cls-2" points="715.1 12.08 711.77 14.69 716.58 15.2 718.82 18.93 719.99 14.29 724.21 12.49 719.83 10.72 720.47 5.57 717.09 8.97 712.2 7.39 715.1 12.08"/><path class="cls-3" d="M726.14,19.84a.65.65,0,0,0-.22.93.75.75,0,0,0,1,.15.92.92,0,0,0,.36-1,1.25,1.25,0,0,0-.8-.31"/><path class="cls-3" d="M725.71,23.84a.52.52,0,0,0-.76.3.51.51,0,0,0,.58.58.85.85,0,0,0,.19-.72"/><path class="cls-3" d="M721.72,26a.41.41,0,0,0,.32.58.45.45,0,0,0,.43-.53.5.5,0,0,0-.6-.35"/><path class="cls-3" d="M725.13,28.48a.53.53,0,0,0-.92.3.91.91,0,0,0,0,.23.51.51,0,0,0,.71.3C725.41,29.05,725.36,28.69,725.13,28.48Z"/><path class="cls-3" d="M721.17,28.9a.6.6,0,0,1,.69.08.48.48,0,0,1,0,.67.52.52,0,0,1-.56.12.88.88,0,0,1-.44-.41C720.8,29.19,721,29,721.17,28.9Z"/><path class="cls-2" d="M43.62,22.4C39.22,24,36,28,33.85,32.1,20.49,57.5,45.53,95.63,70.29,77.66,61.14,59.08,54.73,40.34,45.11,22,44.61,22.08,44.11,22.22,43.62,22.4Z"/><path class="cls-1" d="M75.94,59.24c12.48-4.37,20.79-17.36,21.6-30.56.29-4.83-.34-9.85-2.78-14C91.37,8.88,85.1,5.54,79.1,2.56A31.11,31.11,0,0,0,72.81,0c-.18,20.76-3.34,40.31-4,61A37.9,37.9,0,0,0,75.94,59.24Z"/></g></g></svg>