<svg xmlns="http://www.w3.org/2000/svg" viewBox="0 0 24.03 24.03"><defs><style>.cls-1{fill:#a4d373;}.cls-2{fill:#fff;}.cls-3{fill:#bf9bff;}</style></defs><g id="レイヤー_2" data-name="レイヤー 2"><g id="レイヤー_1-2" data-name="レイヤー 1"><path class="cls-1" d="M23.56,2.32A9.1,9.1,0,0,0,17.62,0C4.36-.82-7,17,5.24,24,11.37,16.66,18.07,10.41,24,2.87,23.88,2.68,23.73,2.5,23.56,2.32Z"/><path class="cls-2" d="M22.2,5.37a7.37,7.37,0,0,0-4.87-1.88C6.47,2.79-2.87,17.37,7.19,23.16c5-6,10.52-11.16,15.4-17.34A5.46,5.46,0,0,0,22.2,5.37Z"/><path class="cls-3" d="M15.2,13.94a6,6,0,0,0-.7.63A2.24,2.24,0,0,0,14,16.92c.64,1.37,2.15,2.85,3.67,2.92s3.93-.52,4.18-2.44a5.75,5.75,0,0,0-1-3C19.44,12.33,16.94,12.63,15.2,13.94Z"/></g></g></svg>