<svg xmlns="http://www.w3.org/2000/svg" viewBox="0 0 21.86 25.53"><defs><style>.cls-1{fill:#dcc470;}.cls-2{fill:#bf9bff;}.cls-3{fill:#d896b7;}.cls-4{fill:#f0a900;}.cls-5{fill:#a4d373;}</style></defs><g id="レイヤー_2" data-name="レイヤー 2"><g id="レイヤー_1-2" data-name="レイヤー 1"><path class="cls-1" d="M1.21,18.56a3.86,3.86,0,0,0-.6.54,1.92,1.92,0,0,0-.48,2,4.31,4.31,0,0,0,3.18,2.53c1.4.06,3.4-.46,3.62-2.12A5.09,5.09,0,0,0,6,18.94C4.88,17.16,2.71,17.42,1.21,18.56Z"/><path class="cls-2" d="M14,.59a4.8,4.8,0,0,0-.7-.39,1.93,1.93,0,0,0-2.09.23A4.3,4.3,0,0,0,9.83,4.26C10.24,5.61,11.39,7.32,13,7A5.11,5.11,0,0,0,15.2,5.26C16.49,3.59,15.53,1.63,14,.59Z"/><path class="cls-3" d="M20,10.11a5.41,5.41,0,0,0-.71-.38,1.91,1.91,0,0,0-2.08.23,4.25,4.25,0,0,0-1.33,3.83c.4,1.35,1.55,3.06,3.19,2.72a5.07,5.07,0,0,0,2.17-1.72C22.55,13.11,21.59,11.16,20,10.11Z"/><path class="cls-4" d="M.7,6.32A4,4,0,0,0,.71,7c.16,1.94.54,4.38,3,4.49,3.78.18,4.24-3,2.57-5.72a3.14,3.14,0,0,0-.76-.9,3.39,3.39,0,0,0-2.25-.36A2.88,2.88,0,0,0,1,5.41,1.92,1.92,0,0,0,.7,6.32Z"/><path class="cls-5" d="M13.33,20.32a2.52,2.52,0,0,0-.93.81,2.19,2.19,0,0,0-.19,1.45,3.65,3.65,0,0,0,1.91,2.65,3.08,3.08,0,0,0,4.36-3.11C18.21,19.57,15.14,19.27,13.33,20.32Z"/></g></g></svg>