<svg xmlns="http://www.w3.org/2000/svg" viewBox="0 0 217.63 128.05"><defs><style>.cls-1{fill:#fbae17;}.cls-2{fill:#f9f4e4;}.cls-3,.cls-6{fill:#606060;}.cls-4{fill:#bbb7ab;}.cls-5{fill:#d4d1ca;}.cls-6{font-size:14.8px;font-family:TheLittleBirdFONT, "TheLittleBirdFONT 90ms-RKSJ-H";letter-spacing:-0.19em;}.cls-7{letter-spacing:-0.15em;}.cls-8{letter-spacing:-0.65em;}.cls-9{letter-spacing:-0.15em;}.cls-10{letter-spacing:-0.18em;}.cls-11{letter-spacing:-0.17em;}.cls-12{letter-spacing:-0.23em;}.cls-13{letter-spacing:-0.21em;}.cls-14{letter-spacing:-0.25em;}.cls-15{letter-spacing:-0.31em;}</style></defs><g id="レイヤー_2" data-name="レイヤー 2"><g id="レイヤー_1-2" data-name="レイヤー 1"><polygon class="cls-1" points="186.57 26.78 203.57 38.78 169.07 108.28 152.07 92.78 186.57 26.78"/><polygon class="cls-2" points="152.07 92.78 169.07 108.28 146.07 120.28 152.07 92.78"/><polygon class="cls-3" points="149.21 105.93 158.07 114.02 146.07 120.28 149.21 105.93"/><polygon class="cls-1" points="11.8 5.96 125.06 0 126.93 17.94 16.89 25.89 11.8 5.96"/><polygon class="cls-2" points="126.93 14.42 144.34 99.16 42.54 116.41 16.89 22.37 126.93 14.42"/><polygon class="cls-4" points="11.8 5.96 0 25.62 30.84 128.05 42.54 116.41 11.8 5.96"/><polygon class="cls-5" points="42.54 116.41 144.34 99.16 141.56 112.12 30.84 128.05 42.54 116.41"/><text class="cls-6" transform="matrix(1, -0.08, 0.27, 0.96, 30.27, 43.71)">ト<tspan class="cls-7" x="11.98" y="0">イレの練習中</tspan><tspan class="cls-8" x="87.44" y="0">。</tspan><tspan class="cls-9"><tspan x="0" y="17.97">こまめに声を</tspan><tspan x="0" y="35.95">か</tspan><tspan class="cls-10" x="12.58" y="35.95">け</tspan><tspan class="cls-11" x="24.71" y="35.95">て</tspan><tspan class="cls-12" x="36.99" y="35.95">も</tspan><tspan class="cls-13" x="48.38" y="35.95">ら</tspan><tspan class="cls-14" x="60.07" y="35.95">え</tspan><tspan class="cls-15" x="71.17" y="35.95">る</tspan><tspan class="cls-13" x="81.38" y="35.95">と</tspan><tspan x="0" y="53.92">助かります</tspan><tspan class="cls-8" x="62.88" y="53.92">。</tspan></tspan></text><path class="cls-4" d="M188.18,85.88c4.58-.67,10.56-1.48,14,2.44,1.5,1.71,1.87,4.07,1.92,6.27,0,2,.39,4.75-1.89,5.54a9.31,9.31,0,0,1-5.28.15c-.54-.15-1.3-.42-1.41-1-.16-1,1.12-2.14,1.78-2.75a10.3,10.3,0,0,1,17.25,9c-.21,1.92,2.8,1.91,3,0a13.31,13.31,0,0,0-22.87-10.62c-1.88,2-3.23,5.08-.79,7.19,1.87,1.63,4.77,1.67,7.1,1.39,2.85-.34,5.41-1.67,5.9-4.73a18.73,18.73,0,0,0-.7-9.37A10.84,10.84,0,0,0,199.05,83c-3.8-1.18-7.82-.58-11.67,0-1.9.28-1.09,3.17.8,2.89Z"/></g></g></svg>