<svg xmlns="http://www.w3.org/2000/svg" viewBox="0 0 228.57 133.07"><defs><style>.cls-1{fill:#ecf1f1;}.cls-2{fill:#65b6c5;}.cls-3{fill:#abd4d1;}.cls-4{fill:#e2c678;}.cls-5{fill:#fff;}.cls-6{fill:none;stroke:#fff;stroke-miterlimit:10;stroke-width:1.74px;}.cls-7{fill:#e29dba;}.cls-8{fill:#ff9dba;}.cls-9{fill:#fbae17;}</style></defs><g id="レイヤー_2" data-name="レイヤー 2"><g id="レイヤー_1-2" data-name="レイヤー 1"><polygon class="cls-1" points="174.66 23.35 199.87 30.23 200.15 42.19 181.8 52.33 170.02 35.99 174.66 23.35"/><polygon class="cls-2" points="199.87 30.23 191.29 36.62 178.84 33.81 174.66 23.35 199.87 30.23"/><polygon class="cls-3" points="191.29 36.62 178.84 33.81 174.85 42.39 181.8 52.33 192.24 46.31 191.29 36.62"/><path class="cls-4" d="M159,63.8a15.11,15.11,0,0,0,.19,7.56c1,2.88,3.45,5,6.09,6.59a22.29,22.29,0,0,0,20,1.35c13.29-6,14.51-24.69,2.43-32.77C174.61,37.78,161.13,51.14,159,63.8Z"/><path class="cls-5" d="M162.54,63.55a12.22,12.22,0,0,0,.16,6.13A10.58,10.58,0,0,0,167.63,75a18.05,18.05,0,0,0,16.22,1.1c10.78-4.85,11.76-20,2-26.57C175.23,42.45,164.3,53.29,162.54,63.55Z"/><path class="cls-4" d="M190.36,48c.27-1.91-2-3.92-3.6-2.86-.82.54-1.45,1.73-2.41,1.49a9.41,9.41,0,0,1-.63-2.56,2.34,2.34,0,0,0-3.23.3c-3,3.79-3-.65-4.42-3C173.15,50.81,189.11,56.8,190.36,48Z"/><polyline class="cls-6" points="189.63 31.05 196.17 32.68 196.59 40.91"/><path class="cls-4" d="M59.75,15.77c-8.87,2.43-14,11-18.63,18.31-2.88,4.59-5.37,9.36-6.44,14.72a59,59,0,0,0-.59,16.14c1.49,19,8.37,39,24.61,50.37,7.35,5.12,16.3,8.28,25.31,8s18-3.94,23.35-11.3c5.87-8.15,5.36-19.31,4.76-28.85a100.62,100.62,0,0,0-6.22-30.35c-6.64-17-20.21-32.22-38.48-36.68a44.77,44.77,0,0,0-6.52-1.07c-1.11-.1-1.11,1.64,0,1.74,17.6,1.63,32.31,14.33,40.21,29.59a86.19,86.19,0,0,1,8.49,28.51,129.06,129.06,0,0,1,1,14.57,50.13,50.13,0,0,1-1.28,14.14,22.56,22.56,0,0,1-7.26,11.51,28.21,28.21,0,0,1-12,5.7c-8.42,1.88-17.33.19-25-3.68-16.93-8.59-25.58-26.53-28.44-44.59-1.58-9.94-2.35-21.05,1.91-30.45a86.85,86.85,0,0,1,7.41-12.44c2.38-3.5,5-7,8.51-9.5a17.63,17.63,0,0,1,5.66-2.72.87.87,0,0,0-.47-1.68Z"/><path class="cls-7" d="M32.6,39.31a14.43,14.43,0,0,0,1.12,2C34.9,43.12,37,44.44,39.13,44c3.68-.77,8.12-3.6,9.15-7.27,1.1-3.89.94-9.82-3.57-11.52-2-.77-6,.12-7.93.82C31.07,28.11,30.39,34.35,32.6,39.31Z"/><path class="cls-7" d="M77.09,31.63a14.37,14.37,0,0,0,1.11,2c1.19,1.77,3.33,3.09,5.42,2.65,3.67-.76,8.12-3.59,9.15-7.26,1.09-3.9.93-9.82-3.58-11.53-2-.76-6,.12-7.92.83C75.56,20.43,74.88,26.67,77.09,31.63Z"/><path class="cls-7" d="M31.73,96.77a13.79,13.79,0,0,0,1.12,2c1.18,1.78,3.32,3.1,5.41,2.66,3.68-.76,8.12-3.6,9.15-7.26,1.1-3.9.94-9.82-3.57-11.53-2-.76-6,.12-7.93.83C30.2,85.57,29.52,91.81,31.73,96.77Z"/><path class="cls-7" d="M102.67,81.47a13.79,13.79,0,0,0,1.12,2c1.18,1.78,3.32,3.1,5.41,2.66,3.68-.76,8.13-3.6,9.16-7.26,1.09-3.9.93-9.82-3.58-11.53-2-.76-6,.12-7.92.83C101.14,70.27,100.46,76.51,102.67,81.47Z"/><path class="cls-8" d="M26.8,68.61a7.12,7.12,0,0,0,1.67,3.12,6.19,6.19,0,0,0,3.94,1.48,10.46,10.46,0,0,0,8.65-3.65c4.31-5.31.87-13.39-5.88-14.23C27.86,54.42,25,62.85,26.8,68.61Z"/><path class="cls-8" d="M94.22,51.19a7.11,7.11,0,0,0,1.68,3.13,6.13,6.13,0,0,0,3.94,1.47,10.42,10.42,0,0,0,8.65-3.65c4.3-5.3.87-13.39-5.89-14.22C95.29,37,92.46,45.44,94.22,51.19Z"/><path class="cls-8" d="M51.31,20.63A7.13,7.13,0,0,0,53,23.75a6.19,6.19,0,0,0,3.94,1.48,10.48,10.48,0,0,0,8.65-3.65c4.3-5.31.87-13.39-5.89-14.23C52.38,6.44,49.55,14.87,51.31,20.63Z"/><path class="cls-7" d="M74.62,128.45a7,7,0,0,0,1.67,3.12,6.13,6.13,0,0,0,3.94,1.48,10.41,10.41,0,0,0,8.65-3.65c4.3-5.31.87-13.39-5.89-14.23C75.68,114.26,72.86,122.7,74.62,128.45Z"/><path class="cls-8" d="M48.44,117a7.11,7.11,0,0,0,1.68,3.13,6.13,6.13,0,0,0,3.94,1.47A10.42,10.42,0,0,0,62.71,118c4.3-5.3.87-13.38-5.89-14.22C49.51,102.85,46.68,111.28,48.44,117Z"/><path class="cls-8" d="M100,112.56a7.15,7.15,0,0,0,1.67,3.13,6.18,6.18,0,0,0,3.94,1.47,10.43,10.43,0,0,0,8.66-3.65c4.3-5.31.86-13.39-5.89-14.23C101,98.37,98.2,106.81,100,112.56Z"/><path class="cls-5" d="M87.94,22.55c.14.12.28.24.41.37s.15.22.2.23-.1-.13,0,0l.09.13a3.72,3.72,0,0,1,.27.48.61.61,0,0,1,.07.14c0-.05-.06-.15,0,0s.07.19.1.29a5.23,5.23,0,0,1,.12.54c0,.12,0,0,0-.05a.76.76,0,0,0,0,.15,2.62,2.62,0,0,1,0,.28c0,.1,0,.2,0,.31s0,.08,0,.12,0-.13,0,0A5.09,5.09,0,0,1,89,26a.87.87,0,0,0,1.68.47,4.83,4.83,0,0,0-1.53-5.16.93.93,0,0,0-.62-.25.87.87,0,0,0-.61,1.48Z"/><path class="cls-5" d="M103.4,41.7a5.35,5.35,0,0,1,.64.41l-.18-.13a5.07,5.07,0,0,1,.84.83l-.14-.18a3.51,3.51,0,0,1,.27.4.94.94,0,0,0,.52.4.87.87,0,0,0,1-1.28,5.48,5.48,0,0,0-2-1.95.93.93,0,0,0-.67-.09.91.91,0,0,0-.52.4.88.88,0,0,0-.09.67.91.91,0,0,0,.4.52Z"/><path class="cls-5" d="M62.6,13.54a11.34,11.34,0,0,1,0,1.75,2.69,2.69,0,0,1,0,.4,1.64,1.64,0,0,1,0,.23c0,.06,0,.31,0,.07a5.13,5.13,0,0,1-.16.87.87.87,0,1,0,1.68.46,11.45,11.45,0,0,0,.23-3.78,1,1,0,0,0-.26-.62.89.89,0,0,0-.61-.26c-.43,0-.93.39-.87.88Z"/><path class="cls-5" d="M42.21,29l.33,0-.23,0a2.88,2.88,0,0,1,.4.09l.08,0c-.14-.06,0,0,0,0l.09.05a3.7,3.7,0,0,1,.33.21c-.24-.15,0,0,0,0l.14.14.13.14,0-.06a.21.21,0,0,1,.06.08,2.39,2.39,0,0,1,.21.34l0,.09c.07.14,0,0,0-.07a.44.44,0,0,1,.07.19,2.59,2.59,0,0,1,.09.4l0-.23a2.49,2.49,0,0,1,0,.61l0-.23a1.42,1.42,0,0,1,0,.2.87.87,0,1,0,1.68.46,3.41,3.41,0,0,0-.75-2.94,3.32,3.32,0,0,0-2.58-1.25.87.87,0,1,0,0,1.74Z"/><path class="cls-5" d="M37.3,61.24a3,3,0,0,1,.31.31l.06.08-.05-.07a1.88,1.88,0,0,1,.12.18c.08.13.14.26.21.39s-.07-.18,0-.08,0,.08,0,.11a1.72,1.72,0,0,1,.07.21,2.88,2.88,0,0,1,.09.4c0,.15,0-.17,0-.06s0,.06,0,.09,0,.15,0,.22a1.7,1.7,0,0,1,0,.22s0,.26,0,.1,0,0,0,0a.3.3,0,0,1,0,.1,1.55,1.55,0,0,1-.06.23.87.87,0,0,0,1.68.47A4.11,4.11,0,0,0,38.53,60a.87.87,0,0,0-1.23,1.23Z"/><path class="cls-5" d="M41.18,88.1a2.09,2.09,0,0,1,.34-.08c.17,0-.2,0,0,0h.15L42,88c.16,0-.21,0,0,0l.15,0,.32.1c.2.07-.15-.08,0,0l.13.06a2.68,2.68,0,0,1,.28.18c.17.12-.12-.12,0,0l.11.1a2.19,2.19,0,0,0,.2.22c-.08-.11-.1-.13,0,0l0,.06.09.15c0,.09.09.19.14.27,0-.13-.06-.15,0-.07l0,.07a.84.84,0,0,0,0,.17l.06.3c-.06-.25,0-.1,0,0a1.27,1.27,0,0,1,0,.2c0,.1,0,.2,0,.3,0-.26,0-.1,0,0s0,.13-.05.19a.87.87,0,1,0,1.68.47,3.5,3.5,0,0,0-4.4-4.29.87.87,0,0,0-.61,1.07.89.89,0,0,0,1.07.61Z"/><path class="cls-5" d="M54.37,108.33a2.43,2.43,0,0,1,.38,0l-.23,0,.46.1.22.08-.07,0,.11.06a2.65,2.65,0,0,1,.4.24l.09.06c.07,0-.18-.15,0,0a1.29,1.29,0,0,1,.17.16l.15.15c.06.06.22.3.06,0,.08.14.17.26.25.4l.09.19c.07.15-.07-.21,0,0a1,1,0,0,1,0,.1,2.47,2.47,0,0,1,.11.47.91.91,0,0,0,.4.52.87.87,0,0,0,1.19-.31,1,1,0,0,0,.09-.67,4,4,0,0,0-3.85-3.22.87.87,0,1,0,0,1.74Z"/><path class="cls-5" d="M83.47,120.5c-.28.12,0,0,.08,0l.12,0h.06c-.17,0,0,0,0,0h.13l.26,0c.18,0-.15,0-.06,0a.7.7,0,0,1,.14,0,1.25,1.25,0,0,1,.26.07l.12,0c.14,0-.19-.09,0,0a1.67,1.67,0,0,1,.23.12l.23.14c.06,0,.13.13,0,0l.1.08.19.18.08.1c.1.11,0,0,0,0s.1.14.14.21.08.16.12.23c-.13-.23,0-.1,0,0a.93.93,0,0,1,0,.13,2.3,2.3,0,0,1,.06.28.83.83,0,0,0,.4.52.87.87,0,0,0,.67.08.83.83,0,0,0,.52-.4,1,1,0,0,0,.08-.67,3.31,3.31,0,0,0-1.69-2.31,3.88,3.88,0,0,0-1.52-.45,3.25,3.25,0,0,0-1.53.3.84.84,0,0,0-.4.52.88.88,0,0,0,.09.67.91.91,0,0,0,.52.4,1,1,0,0,0,.67-.09Z"/><path class="cls-5" d="M107.8,104.31l.24,0h.4c.15,0-.19,0-.08,0a3.69,3.69,0,0,1,.45.11l.12,0s.17.06,0,0,0,0,0,0l.12.06.19.12.11.07s.14.1,0,0,0,0,0,0l.1.08.15.16.09.1c.09.11-.1-.14,0,0l.13.2.11.19c0,.07,0,.18,0,0l0,.13a.87.87,0,0,0,1.68-.47,3.72,3.72,0,0,0-4.33-2.37.87.87,0,0,0-.6,1.07.88.88,0,0,0,1.07.61Z"/><path class="cls-5" d="M110.85,71.23h.41l-.13,0a.86.86,0,0,0,.17,0,3.86,3.86,0,0,1,.58.17c.08,0-.2-.09,0,0l.16.08.26.15a2.2,2.2,0,0,1,.25.17c.13.09-.15-.13,0,0l.11.1a3.51,3.51,0,0,1,.42.44c.12.14-.12-.17,0,0l.09.12.16.26.14.27c.07.16-.07-.18,0,0a1.21,1.21,0,0,0,0,.14l.09.31,0,.15c0,.22,0-.18,0,0a1,1,0,0,0,.25.61.91.91,0,0,0,.62.26c.43,0,.93-.39.87-.87a4.58,4.58,0,0,0-4.48-4.07.87.87,0,0,0,0,1.74Z"/><path class="cls-9" d="M204.26,34.7a10.72,10.72,0,0,1,8.24,5.81c1.62,3.29,1.43,7.14,1.19,10.8,1.7-2.88,3.65-6.1,5.59-8.82,2.9-4.07,9.29-4.65,9.29-4.65-7.26-2.61-8.34-8.18-8.42-17.7C217.25,27.11,213.77,32.91,204.26,34.7Z"/><path class="cls-9" d="M121.86,108.73a10.71,10.71,0,0,1,9.11,4.33c2.15,3,2.61,6.8,3,10.44,1.19-3.13,2.56-6.63,4-9.64,2.17-4.5,8.37-6.15,8.37-6.15-7.59-1.34-9.6-6.65-11.29-16C133.38,99.05,130.93,105.35,121.86,108.73Z"/><path class="cls-9" d="M0,17.11a10.72,10.72,0,0,1,9.14,4.28c2.17,2.95,2.64,6.78,3,10.43,1.17-3.14,2.53-6.65,4-9.67C18.3,17.64,24.49,16,24.49,16c-7.6-1.31-9.64-6.6-11.38-16C11.47,7.36,9.05,13.69,0,17.11Z"/></g></g></svg>