<svg xmlns="http://www.w3.org/2000/svg" viewBox="0 0 256.28 151.11"><defs><style>.cls-1{fill:#fbae17;}.cls-2{fill:#c6a2ff;}.cls-3{fill:#9ed279;}.cls-4{font-size:19.09px;letter-spacing:-0.3em;}.cls-4,.cls-5,.cls-6,.cls-7{fill:#fff;font-family:TheLittleBirdFONT, "TheLittleBirdFONT 90ms-RKSJ-H";}.cls-5{font-size:18.28px;letter-spacing:-0.15em;}.cls-6{font-size:19.45px;letter-spacing:-0.15em;}.cls-7{font-size:16.58px;letter-spacing:-0.15em;}.cls-8{fill:#e2c678;}</style></defs><g id="レイヤー_2" data-name="レイヤー 2"><g id="レイヤー_1-2" data-name="レイヤー 1"><path class="cls-1" d="M250.35,50.3a21.63,21.63,0,0,0,1.8-3.2,22,22,0,0,0-25.58-30.42,22,22,0,0,0-42.47,4.11,22,22,0,1,0-10,42.51A22,22,0,0,0,214.3,74.51a22,22,0,1,0,36-24.21Z"/><path class="cls-1" d="M85,91.35a19.71,19.71,0,0,0-.53-3.1A18.88,18.88,0,0,0,51,81.79a18.88,18.88,0,0,0-26.1,25.7,18.88,18.88,0,1,0,16.3,33.76A18.88,18.88,0,0,0,74,127,18.88,18.88,0,1,0,85,91.35Z"/><path class="cls-1" d="M70.53,16.52a19.13,19.13,0,0,0-.58-3A18.44,18.44,0,0,0,37.11,7.83a18.44,18.44,0,0,0-25,25.59A18.43,18.43,0,0,0,23.39,68.49a18,18,0,0,0,5.28-2.42A18.44,18.44,0,0,0,60.51,51.52a18.44,18.44,0,1,0,10-35Z"/><path class="cls-1" d="M222.9,113.55a16.22,16.22,0,0,0,.44-2.63,16,16,0,0,0-25-14.55,16,16,0,0,0-28.34,8.8,16.2,16.2,0,0,0,.25,4.47,16,16,0,1,0,3.61,31.59A16,16,0,0,0,204.16,139a16,16,0,1,0,18.74-25.46Z"/><path class="cls-1" d="M134.78,104.56c3-1.28,5-4.1,6.76-6.81a15,15,0,0,0,1.61-2.87c-1-.13-1.91-.28-2.85-.43l-.39.59c-1.57,2.37-3.3,4.83-5.91,5.95a10.55,10.55,0,0,1-6,.44c-5.51-1-10.54-5.22-11.72-10.7-.08-.38-.15-.75-.2-1.12-.67-.11-1.34-.23-2-.33a18.57,18.57,0,0,0,.42,3.54c1.36,6.27,7.11,11.06,13.42,12.24A12,12,0,0,0,134.78,104.56Z"/><path class="cls-2" d="M102.27,70.73a10.25,10.25,0,0,0-.76,1.65,4.34,4.34,0,0,0,.85,4.66c2.2,2,6.07,3.44,8.86,2.37,3-1.13,6.63-4,5.6-7.64-.47-1.62-2.87-3.71-4.23-4.61C108.62,64.53,104.37,67,102.27,70.73Z"/><path class="cls-3" d="M139.67,77.24a5.54,5.54,0,0,0-1.19,2.52,4.87,4.87,0,0,0,.91,3.17,8.17,8.17,0,0,0,6.34,3.75A7,7,0,0,0,152,76.32C149.11,71.28,142.47,73.44,139.67,77.24Z"/><text class="cls-4" transform="translate(9.39 59.42) rotate(-24.62)">アレルギー</text><text class="cls-5" transform="translate(28.22 129.19) rotate(-14.82)">健康状態</text><text class="cls-6" transform="translate(162.45 38.79) rotate(11.9)">お絵かきが<tspan x="16.53" y="20.03">大好き</tspan></text><text class="cls-7" transform="translate(163.34 125.03) rotate(8.58)">最寄り駅</text><path class="cls-8" d="M129.58,53a10.52,10.52,0,0,1-2.52-5.51c-1-5.52,1.19-11.7,5.91-14.72.33-.22.66-.4,1-.58-.12-.67-.25-1.33-.39-2a17.48,17.48,0,0,0-3.17,1.64c-5.4,3.46-7.87,10.53-6.76,16.84A12,12,0,0,0,126.51,55a11.07,11.07,0,0,0,3.89,2.52c.82-.79,1.65-1.56,2.5-2.33A9.42,9.42,0,0,1,129.58,53Z"/><path class="cls-8" d="M115.92,50.25a10.52,10.52,0,0,1-2.52-5.51c-1-5.52,1.19-11.7,5.91-14.73.33-.21.66-.4,1-.58-.13-.66-.25-1.33-.39-2a18.05,18.05,0,0,0-3.17,1.63c-5.4,3.47-7.87,10.53-6.77,16.85a12.11,12.11,0,0,0,2.89,6.31,11.21,11.21,0,0,0,3.89,2.52c.82-.79,1.65-1.57,2.5-2.33A9.7,9.7,0,0,1,115.92,50.25Z"/><path class="cls-8" d="M139.94,34.58c-3.92,5.08-3.86,12.56-.69,18.14a13.46,13.46,0,0,0,3.21,3.9c.67-1,1.37-2,2.11-3a12.24,12.24,0,0,1-2.49-3.14c-2.76-4.88-2.81-11.42.61-15.86.24-.31.48-.6.72-.88-.34-.58-.68-1.16-1-1.74A17.64,17.64,0,0,0,139.94,34.58Z"/></g></g></svg>