<svg xmlns="http://www.w3.org/2000/svg" viewBox="0 0 242.02 91.58"><defs><style>.cls-1{fill:#e2c678;}.cls-2{fill:#fbae17;}</style></defs><g id="レイヤー_2" data-name="レイヤー 2"><g id="レイヤー_1-2" data-name="レイヤー 1"><polygon class="cls-1" points="0 76.38 14.25 64.5 6.13 49.09 23.74 58.01 35.25 46.37 36.15 65.87 47.99 73.5 32 78.09 25.61 88.45 18.35 75.03 0 76.38"/><polygon class="cls-2" points="48.63 24.13 66.47 30.77 75.97 17.78 78.65 36.91 91.6 42.21 76.69 49.57 72.98 60.68 63.72 48.98 47.08 50.98 58.49 38.33 48.63 24.13"/><polygon class="cls-1" points="117.38 0 126.57 16.17 142.16 11.79 131.53 27.89 139 40.16 122.16 37.02 112.8 44.41 112.36 29.35 100.2 20.3 115.85 17.34 117.38 0"/><polygon class="cls-2" points="170.38 17.61 181.4 32.39 196.59 25.62 187.44 42.76 197.38 54.23 179.26 53.79 171.19 63.66 168.12 48.3 156.66 40.95 170.93 35.39 170.38 17.61"/><polygon class="cls-1" points="209.64 43.9 222.48 57.3 237.29 48.13 229.61 66.31 242.01 76.99 222.63 79.24 215.83 91.58 210.15 75.94 199.38 70.28 212.26 62.12 209.64 43.9"/></g></g></svg>