<svg xmlns="http://www.w3.org/2000/svg" xmlns:xlink="http://www.w3.org/1999/xlink" viewBox="0 0 265.89 192.73"><defs><style>.cls-1,.cls-7{fill:none;}.cls-2{fill:#dfd1e4;}.cls-3{fill:#fff;}.cls-4{fill:#e4e4e4;}.cls-5{fill:#f394b7;}.cls-6{fill:#f2eaff;}.cls-7{stroke:#bf9bff;stroke-linecap:round;stroke-linejoin:round;stroke-width:1.42px;}.cls-8{clip-path:url(#clip-path);}.cls-9{fill:#f0a900;}.cls-10{fill:#fbedcd;}.cls-11{fill:#606060;}</style><clipPath id="clip-path"><polygon class="cls-1" points="135.09 93.1 144.41 117.42 156.14 135.28 171.38 145.49 201.13 153.48 224.8 148.16 240.01 138.75 250.02 113.44 253.96 88.97 258.9 58.28 245.9 37.01 226.84 19.34 208.8 12.32 187.59 8 168.71 9.06 153.22 20.26 143.69 39.72 137.54 66.56 135.09 93.1"/></clipPath></defs><g id="レイヤー_2" data-name="レイヤー 2"><g id="レイヤー_1-2" data-name="レイヤー 1"><polygon class="cls-2" points="61.5 68.88 58 45.38 54.5 36.88 30.5 35.88 13.5 37.88 3.5 41.88 0 62.88 1 153.38 13.5 159.88 30.5 159.88 54.5 157.38 66.5 146.38 65.5 117.38 61.5 68.88"/><polygon class="cls-3" points="55.35 72.86 52.61 52.58 49.87 45.24 31.1 44.38 17.8 46.11 9.98 49.56 7.24 67.68 8.02 145.77 17.8 151.38 31.1 151.38 49.87 149.22 59.26 139.73 58.48 114.71 55.35 72.86"/><polygon class="cls-2" points="49.87 45.24 42.5 49.38 16 51.88 10 43.88 42.5 39.38 49.87 45.24"/><polygon class="cls-4" points="14.47 129.05 20.48 128.69 22.4 130.61 23 136.26 19.28 139.14 14.22 137.53 13.52 133.33 14.47 129.05"/><polygon class="cls-4" points="45.48 127.05 51.48 126.69 53.4 128.61 54 134.26 50.28 137.14 45.22 135.53 44.52 131.33 45.48 127.05"/><polygon class="cls-5" points="42.12 87.36 27.5 88.88 26 78.38 14 94.38 28 110.38 28 100.38 44.5 96.88 42.12 87.36"/><polygon class="cls-5" points="39.28 76.15 102.54 71.32 104.73 109.98 40.59 118.33 39.28 76.15"/><polygon class="cls-6" points="34.34 71.21 97.6 66.38 99.8 105.04 35.66 113.39 34.34 71.21"/><polyline class="cls-7" points="36.98 74.73 65.05 91.07 94.09 69.89"/><polygon class="cls-5" points="128.49 94.44 138.83 121.42 151.85 141.25 168.76 152.58 201.77 161.44 228.04 155.55 244.92 145.1 256.03 117.01 260.4 89.86 265.89 55.8 251.46 32.2 230.31 12.59 210.29 4.8 186.75 0 165.8 1.18 148.61 13.61 138.04 35.2 131.21 64.99 128.49 94.44"/><polygon class="cls-3" points="135.09 93.1 144.41 117.42 156.14 135.28 171.38 145.49 201.13 153.48 224.8 148.16 240.01 138.75 250.02 113.44 253.96 88.97 258.9 58.28 245.9 37.01 226.84 19.34 208.8 12.32 187.59 8 168.71 9.06 153.22 20.26 143.69 39.72 137.54 66.56 135.09 93.1"/><g class="cls-8"><path class="cls-9" d="M163.5,134.29c1.85-5.41,3.92-10.89,7.59-15.28,3.34-4,7.83-6.88,12.41-9.39a120.53,120.53,0,0,1,27.76-11c7.47-1.93,15.94-3,22.46,1.14,6.16,3.91,8.88,11.41,10.75,18.46a181.28,181.28,0,0,1,5.83,56.32c-.13,2.39-.33,4.87-1.54,6.94-1.9,3.25-5.78,4.7-9.41,5.75-22.06,6.37-53,8.81-74.49-1.34C145.34,176.63,158.4,149.22,163.5,134.29Z"/><path class="cls-10" d="M208.47,118.18c3.54-1.59,6.11-4.24,9.09-8.33a2.19,2.19,0,0,0,.57-1.54c-.15-1-1.33-1.26-2.25-1.56-5-1.66-8.27-18.09-6.87-18a41.92,41.92,0,0,0-15.7,1.78c-.39,8.6-2,20.31-6.46,27.74-.71,1.17,13.77,1.73,14.88,1.6A22.65,22.65,0,0,0,208.47,118.18Z"/><path class="cls-10" d="M172.11,76.48c2.33,9,8,17.58,16.55,21.11a28.44,28.44,0,0,0,11.6,1.91c8.86-.24,18.13-4.17,22.43-11.91,1.92-3.45,2.74-7.39,3.53-11.26,1.25-6.14,2.51-12.35,2.32-18.61s-2-12.69-6.15-17.37c-6.77-7.58-18-9-28.12-9.17-5.45-.1-11.11.05-16,2.46C165.26,40.08,169.19,65.23,172.11,76.48Z"/><path class="cls-10" d="M165.33,133.66a24.31,24.31,0,0,0,3.34.22c10.5-.11,11.85-12.26,11.81-20.58,0-1.42-.28-3.21-1.64-3.62s-2.61,1-2.88,2.37c-.53,2.74-1,6.29-2.83,1.87-1.26-3.13-1.89-6.71-2.82-10-.3-1.09-1-2.44-2.12-2.19-.87.19-1.18,1.25-1.3,2.14a61,61,0,0,0-.48,11.93c-1-2.41-8.42-16.17-10.84-8.55-.73,2.27,1.15,10.25,4.44,10-3.54.21-6.13-5.34-9.38-3.93-.8,2,.65,4.28,2.32,5.7s3.72,2.53,4.76,4.46a8.82,8.82,0,0,0-4.3-.45,3,3,0,0,0-2.51,3.08,4,4,0,0,0,1.7,2.36A27.05,27.05,0,0,0,165.33,133.66Z"/><path class="cls-10" d="M240.15,120.09a23.76,23.76,0,0,1-3.17,1.08c-10.18,2.61-14.61-8.79-16.73-16.83-.36-1.38-.56-3.18.66-3.92s2.77.28,3.39,1.54c1.22,2.51,2.62,5.81,3.21,1.08.42-3.35.11-7,.16-10.35,0-1.13.36-2.62,1.49-2.67.89,0,1.46.91,1.8,1.73a60.79,60.79,0,0,1,3.54,11.41c.38-2.59,4-17.8,8.27-11.07,1.29,2,1.53,10.2-1.69,10.86,3.47-.71,4.54-6.74,8-6.21,1.3,1.76.48,4.3-.77,6.1s-2.94,3.4-3.44,5.54a8.85,8.85,0,0,1,4-1.55c1.46,0,3.06.88,3.22,2.33a4.13,4.13,0,0,1-1,2.72A27.26,27.26,0,0,1,240.15,120.09Z"/><path class="cls-11" d="M190.45,57.77l.39-7.46a14,14,0,0,1-9.34,7.6,12.41,12.41,0,0,0-.6-5.37c-4.17,5.81-5.71,13.24-5.12,20.36s3.18,14,6.63,20.21c-3.29,1.17-7.08.21-9.91-1.84a21.84,21.84,0,0,1-6.38-8.2c-4.53-9.12-5.76-19.69-4.32-29.78,1.63-11.44,7.23-23,17.37-28.55a35,35,0,0,1,15.24-3.9,43.11,43.11,0,0,1,24,5.78,34.92,34.92,0,0,1,15.39,19,46.25,46.25,0,0,1,1.85,13.51,46,46,0,0,1-2.06,15.43A31.33,31.33,0,0,1,220.1,91.1c2.64-7.1,4.41-14.64,4-22.2s-3.2-15.16-8.61-20.45a29.2,29.2,0,0,1,.2,12.17c.88-4.49-10.18-19.74-10.18-19.74s-5.07,7.95-6.7,10.1A22.23,22.23,0,0,1,190.45,57.77Z"/><path class="cls-5" d="M199.9,82.79l.15,0c.67-.17,6.21-2.66,6.15-3.08.36,2.52.51,5.24-.74,7.46a6.52,6.52,0,0,1-11.61-.51c-.66-1.45-2-2.93-1.71-4.61A15,15,0,0,0,199.9,82.79Z"/></g><path class="cls-9" d="M151.48,103.9a11.71,11.71,0,0,1,11.85-7c1,.1,1-1.4,0-1.5a13.22,13.22,0,0,0-13.3,8c-.37.89,1.08,1.28,1.45.4Z"/><path class="cls-9" d="M153.91,91.24a23.27,23.27,0,0,0-6.67,7c-.52.82.78,1.57,1.29.75a21.66,21.66,0,0,1,6.13-6.41.75.75,0,0,0,.27-1,.74.74,0,0,0-1-.27Z"/><path class="cls-9" d="M238.69,85.92a9.7,9.7,0,0,1,8.7,2c.73.63,1.79-.43,1.06-1.06a11.26,11.26,0,0,0-10.16-2.43.75.75,0,0,0,.4,1.45Z"/><path class="cls-9" d="M241.31,80.89a11.59,11.59,0,0,1,8.07,2.64.77.77,0,0,0,1.06,0,.75.75,0,0,0,0-1.06,13.09,13.09,0,0,0-9.13-3.08c-1,.06-1,1.56,0,1.5Z"/><polygon class="cls-5" points="129.92 83.31 109.75 94.13 135.75 96.13 129.92 83.31"/></g></g></svg>