<svg xmlns="http://www.w3.org/2000/svg" xmlns:xlink="http://www.w3.org/1999/xlink" viewBox="0 0 1332.02 828"><defs><style>.cls-1{fill:none;}.cls-2{clip-path:url(#clip-path);}.cls-3{fill:#f5ebd4;}</style><clipPath id="clip-path" transform="translate(27.02 -27.89)"><rect class="cls-1" width="1280" height="871.89"/></clipPath></defs><g id="レイヤー_2" data-name="レイヤー 2"><g id="レイヤー_1-2" data-name="レイヤー 1"><g class="cls-2"><path class="cls-3" d="M1280,218.49A88.33,88.33,0,1,0,1150.55,98.34,88.36,88.36,0,0,0,981.33,85.1,88.34,88.34,0,0,0,865.58,96.38a88.37,88.37,0,0,0-154.72,10.7,88.34,88.34,0,0,0-142,4A88.36,88.36,0,0,0,412.41,96.38,88.36,88.36,0,0,0,296.65,85.1,88.36,88.36,0,0,0,127.44,98.34,88.34,88.34,0,1,0,0,220.5V663.27A88.33,88.33,0,1,0,127.44,785.43a88.35,88.35,0,0,0,169.21,13.24,88.32,88.32,0,0,0,115.76-11.28,88.35,88.35,0,0,0,154.71-10.7,88.34,88.34,0,0,0,142-4,88.36,88.36,0,0,0,156.43,14.67,88.31,88.31,0,0,0,115.75,11.28,88.36,88.36,0,0,0,169.22-13.24A88.33,88.33,0,1,0,1280,665.28Z" transform="translate(27.02 -27.89)"/></g></g></g></svg>