<svg xmlns="http://www.w3.org/2000/svg" viewBox="0 0 157.66 157.66"><defs><style>.cls-1{fill:#bf9bff;}.cls-2{font-size:24px;font-family:NotoSansCJKjp-Bold-90ms-RKSJ-H, Noto Sans CJK JP;letter-spacing:0.08em;}.cls-2,.cls-4,.cls-5{fill:#fff;}.cls-3{letter-spacing:-0.02em;}.cls-4{fill-rule:evenodd;}</style></defs><g id="レイヤー_2" data-name="レイヤー 2"><g id="レイヤー_1-2" data-name="レイヤー 1"><circle class="cls-1" cx="78.83" cy="78.83" r="78.83"/><text class="cls-2" transform="translate(40.85 90.52)">送迎も<tspan class="cls-3"><tspan x="-9.36" y="32.72">承ります</tspan></tspan></text><path class="cls-4" d="M109.89,33.21l5.63.38a2.7,2.7,0,0,1,1.81.86,2.75,2.75,0,0,1,.74,1.87v4.12h.47a.78.78,0,0,1,.79.78v7.13a2.77,2.77,0,0,1-2.74,2.74h-2a.79.79,0,0,1-.78-.73,9,9,0,0,0-2.94-5.57A8.9,8.9,0,0,0,96.17,50.4a.8.8,0,0,1-.78.69H69.66a.79.79,0,0,1-.78-.73,8.9,8.9,0,0,0-17.68,0,.8.8,0,0,1-.78.69H48.26a4.69,4.69,0,0,1-4.69-4.69V41.22a.78.78,0,0,1,.78-.78h.47V33.37a.78.78,0,0,1,.78-.78h1.23L49.76,20.3a4.7,4.7,0,0,1,4.57-3.61h32a4.69,4.69,0,0,1,2,.46A4.49,4.49,0,0,1,90,18.45l10.51,13.1a3,3,0,0,0,2.23,1.16l5.63.39Zm-.79,1.51H109l-6.42-.44a4.59,4.59,0,0,1-1.85-.51,4.71,4.71,0,0,1-1.48-1.23L88.73,19.43a3.06,3.06,0,0,0-1.07-.88,3.23,3.23,0,0,0-1.37-.29h-32a3.12,3.12,0,0,0-1.95.66,3.18,3.18,0,0,0-1.1,1.74L48.21,33.53a.77.77,0,0,1-.76.63H46.38v7.06a.78.78,0,0,1-.78.79h-.47V46.4a3.11,3.11,0,0,0,.92,2.21,3.15,3.15,0,0,0,2.21.91h1.49a10.47,10.47,0,0,1,20.58,0h24.4a10.47,10.47,0,0,1,20.58,0h1.28a1.2,1.2,0,0,0,.83-.34,1.18,1.18,0,0,0,.34-.83V42h-.47a.78.78,0,0,1-.78-.79v-4.9a1.15,1.15,0,0,0-.32-.8,1.13,1.13,0,0,0-.77-.37l-6.32-.43ZM67.67,22.09H56.8a1.2,1.2,0,0,0-.72.24,1.27,1.27,0,0,0-.41.64l-2.21,8.59H67.67V22.09ZM56.8,20.53a2.71,2.71,0,0,0-2.64,2.06L51.7,32.15a.79.79,0,0,0,.57,1l.19,0h16a.77.77,0,0,0,.78-.78v-11a.78.78,0,0,0-.78-.78Zm16.84,0a.78.78,0,0,0-.79.78v11a.78.78,0,0,0,.79.78H95a.77.77,0,0,0,.61-1.26l-8.17-10.3a2.58,2.58,0,0,0-.95-.76,2.63,2.63,0,0,0-1.19-.27Zm11.68,1.56H74.42v9.47h19l-7.16-9a1.16,1.16,0,0,0-.4-.34,1.24,1.24,0,0,0-.52-.11ZM60.11,48.72a2.79,2.79,0,0,0-2,.8l0,0a2.74,2.74,0,0,0-.76,1.9,2.7,2.7,0,0,0,.8,1.94h0a2.75,2.75,0,0,0,2,.81,2.71,2.71,0,0,0,1.94-.81l.05,0a2.75,2.75,0,0,0-2-4.66Zm-2.8,0-.05,0a3.89,3.89,0,0,0-1.09,2.69,3.85,3.85,0,0,0,1.14,2.73h0a3.84,3.84,0,0,0,5.46,0l0-.05a3.85,3.85,0,0,0,1.09-2.68,3.86,3.86,0,0,0-6.6-2.73Zm47.7,0a2.7,2.7,0,0,0-1.94.8h0a2.75,2.75,0,0,0-.81,1.95,2.71,2.71,0,0,0,.81,1.94l0,.05a2.75,2.75,0,0,0,4.65-2,2.79,2.79,0,0,0-.8-1.95l0,0a2.78,2.78,0,0,0-1.91-.76Zm-2.73,0h0a3.84,3.84,0,0,0,0,5.46l0,0A3.89,3.89,0,0,0,105,55.34a3.86,3.86,0,0,0,2.73-6.6l0-.05A3.85,3.85,0,0,0,105,47.6a3.81,3.81,0,0,0-2.73,1.14Zm2.73-2.8a5.53,5.53,0,0,0-3.91,9.43h0a5.52,5.52,0,1,0,7.81-7.81l0,0A5.52,5.52,0,0,0,105,45.94Zm-4.5,1a6.36,6.36,0,0,0,0,9h0a6.37,6.37,0,0,0,9-9l0,0a6.34,6.34,0,0,0-9,0ZM60,45.94a5.52,5.52,0,0,0-3.9,1.61h0a5.52,5.52,0,0,0,0,7.81l0,0A5.53,5.53,0,0,0,64,47.56l0,0A5.54,5.54,0,0,0,60,45.94Zm-4.51,1h0a6.36,6.36,0,0,0,0,9l0,0a6.37,6.37,0,0,0,9,0,6.36,6.36,0,0,0,0-9l0,0a6.35,6.35,0,0,0-9,0Z"/><path class="cls-4" d="M109.1,34.72H109l-6.42-.44a4.59,4.59,0,0,1-1.85-.51,4.71,4.71,0,0,1-1.48-1.23L88.73,19.43a3.06,3.06,0,0,0-1.07-.88,3.23,3.23,0,0,0-1.37-.29h-32a3.12,3.12,0,0,0-1.95.66,3.18,3.18,0,0,0-1.1,1.74L48.21,33.53a.77.77,0,0,1-.76.63H46.38v7.06a.78.78,0,0,1-.78.79h-.47V46.4a3.11,3.11,0,0,0,.92,2.21,3.15,3.15,0,0,0,2.21.91h1.49a10.47,10.47,0,0,1,20.58,0h24.4a10.47,10.47,0,0,1,20.58,0h1.28a1.2,1.2,0,0,0,.83-.34,1.18,1.18,0,0,0,.34-.83V42h-.47a.78.78,0,0,1-.78-.79v-4.9a1.15,1.15,0,0,0-.32-.8,1.13,1.13,0,0,0-.77-.37l-6.32-.43ZM56.8,20.53a2.71,2.71,0,0,0-2.64,2.06L51.7,32.15a.79.79,0,0,0,.57,1l.19,0h16a.77.77,0,0,0,.78-.78v-11a.78.78,0,0,0-.78-.78Zm16.84,0a.78.78,0,0,0-.79.78v11a.78.78,0,0,0,.79.78H95a.77.77,0,0,0,.61-1.26l-8.17-10.3a2.58,2.58,0,0,0-.95-.76,2.63,2.63,0,0,0-1.19-.27Z"/><path class="cls-4" d="M57.31,48.74l-.05,0a3.89,3.89,0,0,0-1.09,2.69,3.85,3.85,0,0,0,1.14,2.73h0a3.84,3.84,0,0,0,5.46,0l0-.05a3.85,3.85,0,0,0,1.09-2.68,3.86,3.86,0,0,0-6.6-2.73Zm45,0h0a3.84,3.84,0,0,0,0,5.46l0,0A3.89,3.89,0,0,0,105,55.34a3.86,3.86,0,0,0,2.73-6.6l0-.05A3.85,3.85,0,0,0,105,47.6a3.81,3.81,0,0,0-2.73,1.14Zm2.73-2.8a5.53,5.53,0,0,0-3.91,9.43h0a5.52,5.52,0,1,0,7.81-7.81l0,0A5.52,5.52,0,0,0,105,45.94Zm-45,0a5.52,5.52,0,0,0-3.9,1.61h0a5.52,5.52,0,0,0,0,7.81l0,0A5.53,5.53,0,0,0,64,47.56l0,0A5.54,5.54,0,0,0,60,45.94Z"/><path class="cls-4" d="M32.91,42a7.66,7.66,0,0,0-3.39,5.19c-1,6.12,10.18,1,11-1C36.32,47.65,32.91,42,32.91,42Z"/><circle class="cls-5" cx="31.52" cy="42.36" r="4.37"/><circle class="cls-5" cx="30.72" cy="50.58" r="4.37"/><circle class="cls-5" cx="26.47" cy="45.79" r="4.37"/></g></g></svg>