<svg xmlns="http://www.w3.org/2000/svg" viewBox="0 0 82.33 69.1"><defs><style>.cls-1,.cls-2{fill:#fff;}.cls-2{font-size:15px;font-family:NotoSansCJKjp-Bold-90ms-RKSJ-H, Noto Sans CJK JP;letter-spacing:0.05em;}</style></defs><g id="レイヤー_2" data-name="レイヤー 2"><g id="レイヤー_1-2" data-name="レイヤー 1"><path class="cls-1" d="M48.15,32.4h-14A9.23,9.23,0,0,1,25,23.18v-14A9.23,9.23,0,0,1,34.19,0h14a9.24,9.24,0,0,1,9.22,9.22v14A9.24,9.24,0,0,1,48.15,32.4Zm-14-29.62a6.45,6.45,0,0,0-6.44,6.44v14a6.45,6.45,0,0,0,6.44,6.44h14a6.45,6.45,0,0,0,6.44-6.44v-14a6.45,6.45,0,0,0-6.44-6.44Z"/><path class="cls-1" d="M41.17,24.5a8.3,8.3,0,1,1,8.29-8.3A8.31,8.31,0,0,1,41.17,24.5Zm0-13.82a5.52,5.52,0,1,0,5.52,5.52A5.53,5.53,0,0,0,41.17,10.68Z"/><path class="cls-1" d="M51.81,7.43a2,2,0,1,1-2-2A2,2,0,0,1,51.81,7.43Z"/><text class="cls-2" transform="translate(0 53.41)">instagram</text></g></g></svg>