<svg xmlns="http://www.w3.org/2000/svg" viewBox="0 0 713.21 287"><defs><style>.cls-1{fill:#f0a317;}.cls-2{fill:#9ccb73;}.cls-3{fill:#fff;}.cls-4{fill:#b793ff;}.cls-5{font-size:15px;fill:#606060;font-family:NotoSansCJKjp-Bold-90ms-RKSJ-H, Noto Sans CJK JP;letter-spacing:0.05em;}.cls-6{letter-spacing:-0.45em;}.cls-7{fill:#d4bc70;}.cls-8{fill:#d08eaf;}.cls-9{fill:#eb8caf;}.cls-10{fill:#be9aff;}.cls-11{fill:#dabe78;}.cls-12{fill:none;stroke:#dabe78;stroke-miterlimit:10;stroke-width:2.83px;}</style></defs><g id="レイヤー_2" data-name="レイヤー 2"><g id="レイヤー_1-2" data-name="レイヤー 1"><path class="cls-1" d="M24.94,51.14a24.27,24.27,0,0,0,7.64,1A17.22,17.22,0,0,0,39.16,50,30.81,30.81,0,0,0,53.49,33.73,41.17,41.17,0,0,0,55.6,24.9c.65-4.68.69-9.72-1.72-13.78C50.56,5.51,43.6,3.36,37.22,2,19.3-1.77,7.84,4.94,1.36,22.13-4.8,38.49,11.18,47.79,24.94,51.14Z"/><polygon class="cls-2" points="28.11 13.07 22.46 17.5 30.63 18.35 34.42 24.7 36.41 16.81 43.57 13.76 36.13 10.75 37.22 2.02 31.49 7.79 23.18 5.1 28.11 13.07"/><path class="cls-3" d="M46.84,26.24a1.09,1.09,0,0,0-.36,1.58,1.29,1.29,0,0,0,1.66.25,1.53,1.53,0,0,0,.6-1.63,2.12,2.12,0,0,0-1.35-.53"/><path class="cls-3" d="M46.12,33a.88.88,0,0,0-1.29.51.87.87,0,0,0,1,1,1.44,1.44,0,0,0,.32-1.23"/><path class="cls-3" d="M39.35,36.77a.69.69,0,0,0,.54,1,.77.77,0,0,0,.74-.89.85.85,0,0,0-1-.6"/><path class="cls-3" d="M45.14,40.9a.9.9,0,0,0-1.56.52,1,1,0,0,0,0,.39.86.86,0,0,0,1.2.5C45.61,41.88,45.52,41.26,45.14,40.9Z"/><path class="cls-3" d="M38.41,41.61a1.06,1.06,0,0,1,1.18.14.84.84,0,0,1,.07,1.14.91.91,0,0,1-1,.2A1.5,1.5,0,0,1,38,42.4C37.79,42.1,38.1,41.76,38.41,41.61Z"/><path class="cls-2" d="M420,147.19a45.32,45.32,0,0,0-68.22-50.47,45.32,45.32,0,0,0-80.48,35.43,45.31,45.31,0,1,0,7.81,89.65,45.32,45.32,0,0,0,85.94-4A45.32,45.32,0,1,0,420,147.19Z"/><path class="cls-4" d="M87.6,134.54a46,46,0,0,0-1.67,7.38,45.32,45.32,0,0,0,68.51,44.9,45.32,45.32,0,0,0,81.4-33.26,45.31,45.31,0,1,0-5.41-89.83,45.32,45.32,0,0,0-86,1.69A45.32,45.32,0,1,0,87.6,134.54Z"/><text class="cls-5" transform="translate(523.01 109.88) rotate(-10)">日常の様子や情報を<tspan x="0" y="32.25">twitter</tspan><tspan class="cls-6" x="56.91" y="32.25">、</tspan><tspan x="65.16" y="32.25">instagramでも</tspan><tspan x="0" y="64.5">ご紹介しています</tspan><tspan class="cls-6" x="126" y="64.5">。</tspan></text><path class="cls-1" d="M145.1,252.51A24.5,24.5,0,1,1,120.6,228,24.5,24.5,0,0,1,145.1,252.51Zm-24.5-20.7a20.7,20.7,0,1,0,20.69,20.7A20.69,20.69,0,0,0,120.6,231.81Z"/><path class="cls-1" d="M120.77,250.45s7.32-11.79,8.1-13.21-4.36-3.16-8.49-2.83c-3.93.32-8.17,2.05-7.86,2.83S120.77,250.45,120.77,250.45Z"/><path class="cls-4" d="M118.82,251.53s-9-10.6-10.06-11.78-4.35,3.17-5.31,7.2c-.92,3.83-.59,8.4.26,8.35S118.82,251.53,118.82,251.53Z"/><path class="cls-7" d="M119.24,253.73s-12.84,5.24-14.31,5.92,1.67,5.12,5.2,7.28c3.37,2.06,7.82,3.15,8,2.33S119.24,253.73,119.24,253.73Z"/><path class="cls-8" d="M121.46,254s1,13.84,1.21,15.45,5.39,0,8.53-2.71,5.42-6.45,4.7-6.91S121.46,254,121.46,254Z"/><path class="cls-2" d="M122.41,252s13.47,3.32,15.06,3.63,1.66-5.13.07-8.95c-1.51-3.64-4.47-7.15-5.12-6.61S122.41,252,122.41,252Z"/><path class="cls-4" d="M411.84,11.28c1.35-3.26-.1-7.28-2.95-9.36-6.13-4.49-17.09-.75-15.21,7.59.91,4,2.9,7.65,7.09,7.91C404.74,17.66,410.29,15,411.84,11.28Z"/><path class="cls-4" d="M418.76,45.83c4.26-10.32-.33-23-9.34-29.64C390,2,355.31,13.82,361.29,40.23c2.87,12.71,9.16,24.19,22.43,25C396.27,66,413.85,57.72,418.76,45.83Z"/><path class="cls-4" d="M376.13,19.13a9.83,9.83,0,0,0,1.57-9.8,8.42,8.42,0,0,0-8.32-5.07c-5.8.63-13.43,6.92-10.21,13.28S371.85,24.38,376.13,19.13Z"/><path class="cls-3" d="M403.1,20.49c2.12.18,3.89,2.71,3.83,5a5.44,5.44,0,0,1-3.56,4.95,5.55,5.55,0,0,1-5.7-1.17,6,6,0,0,1-1.22-6C397.5,20,401.92,20.38,403.1,20.49Z"/><path class="cls-3" d="M375.82,23.75c2.12.19,3.88,2.71,3.83,5a5.47,5.47,0,0,1-3.56,5,5.57,5.57,0,0,1-5.7-1.18,5.81,5.81,0,0,1-1.22-6C370.5,23,374.64,23.64,375.82,23.75Z"/><path class="cls-4" d="M402.17,28.55a2.65,2.65,0,0,0-.95-3c-2-1.44-5.49-.24-4.88,2.44.29,1.29.93,2.45,2.27,2.53A4,4,0,0,0,402.17,28.55Z"/><path class="cls-4" d="M374.91,31.36a2.65,2.65,0,0,0-1-3c-2-1.44-5.48-.24-4.88,2.44.29,1.29.93,2.45,2.28,2.53A4,4,0,0,0,374.91,31.36Z"/><path class="cls-2" d="M398.87,41.31a6.34,6.34,0,0,0-2.28-7.24c-4.74-3.46-13.21-.57-11.75,5.87.7,3.1,2.24,5.9,5.48,6.1C393.38,46.23,397.67,44.21,398.87,41.31Z"/><path class="cls-7" d="M381.3,50.24a7.21,7.21,0,0,1-1.87-4.54c-1,0-2,.11-3,.19a5.56,5.56,0,0,0-.08.7,8.73,8.73,0,0,0,2.29,5.72c8.13,10,28.23,6.32,25.16-7l-1.73.08C403.53,55.57,387.78,58.17,381.3,50.24Z"/><path class="cls-9" d="M436.15,44c-3.56,4-3.78,10-3.33,15.3.22,2.53.53,5,.95,7.55.48,2.8,1.43,6,4.08,7a8.22,8.22,0,0,0,4.71-.09c5.49-1.27,11-3.25,15.11-7.12s6.45-10,4.6-15.31C458.76,41.27,444.12,35,436.15,44Z"/><polygon class="cls-2" points="446 42.68 442.82 46.4 448.4 45.88 451.78 49.61 452.06 44.07 456.44 41.08 451.06 40.06 450.63 34.07 447.56 38.7 441.64 38.01 446 42.68"/><path class="cls-3" d="M453.14,54.55a.74.74,0,0,0,0,1.1.87.87,0,0,0,1.14,0,1.07,1.07,0,0,0,.19-1.17,1.4,1.4,0,0,0-1-.17"/><path class="cls-3" d="M453.56,59.19a.56.56,0,1,0,0,1,1,1,0,0,0,.05-.87"/><path class="cls-3" d="M457.76,56.58a.59.59,0,0,0-.79.51.6.6,0,0,0,.78.53,1,1,0,0,0,.05-.87"/><path class="cls-3" d="M449.53,62.59a.47.47,0,0,0,.49.58.52.52,0,0,0,.38-.69.59.59,0,0,0-.77-.27"/><path class="cls-3" d="M454,64.58a.62.62,0,0,0-1,.56.75.75,0,0,0,0,.26.57.57,0,0,0,.87.17C454.4,65.17,454.26,64.77,454,64.58Z"/><path class="cls-3" d="M449.55,66a.74.74,0,0,1,.81-.06.59.59,0,0,1,.2.76.62.62,0,0,1-.62.25,1,1,0,0,1-.59-.35C449.2,66.37,449.36,66.1,449.55,66Z"/><polygon class="cls-1" points="505.5 83 509.5 87.74 643 29.24 639 17.07 505.5 83"/><polygon class="cls-10" points="498.45 78.34 501.24 80.84 574.3 31.11 572.91 27.69 498.45 78.34"/><polygon class="cls-11" points="510.28 190.32 513.11 184.8 656.37 211.67 655.21 224.42 510.28 190.32"/><polygon class="cls-1" points="504.46 196.46 506.62 193.38 589.01 225.35 588.43 229 504.46 196.46"/><path class="cls-12" d="M518.58,244.79c-.2-6.18-5.73-11.11-11.68-12.81s-12.26-.95-18.42-.44-12.65.68-18.2-2c-2.25-1.1-4.25-2.64-6.48-3.78a20.75,20.75,0,0,0-7.81-2.19,15.32,15.32,0,0,0-10.42,2.7,10.19,10.19,0,0,0-4.1,9.61,11,11,0,0,0,5.67,7.26,24.25,24.25,0,0,0,9.11,2.54,19.3,19.3,0,0,1,5.94,1.23c1.84.85,3.44,2.6,3.44,4.63"/><polygon class="cls-9" points="462.5 251 465.5 287 526.5 279 520.5 242 462.5 251"/><polygon class="cls-7" points="463.39 261.7 464.23 271.78 524.1 264.18 522.62 255.1 463.39 261.7"/><circle class="cls-4" cx="496.5" cy="264" r="11"/><circle class="cls-3" cx="496.5" cy="264" r="8"/><rect class="cls-9" x="468.5" y="244" width="12" height="7" transform="translate(-37.45 91.57) rotate(-10.61)"/></g></g></svg>