<svg xmlns="http://www.w3.org/2000/svg" viewBox="0 0 56.91 71.1"><defs><style>.cls-1,.cls-2{fill:#fff;}.cls-2{font-size:15px;font-family:NotoSansCJKjp-Bold-90ms-RKSJ-H, Noto Sans CJK JP;letter-spacing:0.05em;}</style></defs><g id="レイヤー_2" data-name="レイヤー 2"><g id="レイヤー_1-2" data-name="レイヤー 1"><path class="cls-1" d="M45.5,4.59a5.25,5.25,0,0,1-1.55.2l0-.16C44.79,4,46.82,2,47.09,1.07c.12-.4,0-.54,0-.55l-2.6,1.1-2.17,1h0A8.7,8.7,0,0,0,36,0c-4.53,0-8.19,3.2-8.19,7.16a10.51,10.51,0,0,0,.33,2.7c0,.21,0-.21,0,0a25.66,25.66,0,0,1-10-3c-6.56-3.32-7-5.62-7-5.62-1,1.09-1.56,4.71-.52,7.55a9.41,9.41,0,0,0,3,3.45h0a7,7,0,0,1-2.1-.34A4.78,4.78,0,0,1,10,11.21c-.64,1.56.65,4.35,2.87,6.35a11.9,11.9,0,0,0,3.65,1.9l-3.69.1c-.21,3.59,7.53,5.72,7.53,5.72h0a12.67,12.67,0,0,1-7.72,2.8,14.68,14.68,0,0,1-4.21-.62,20.09,20.09,0,0,0,13.71,4.92c13.81-.73,21.6-12.59,22-24.25l0,0a10.27,10.27,0,0,0,2-1.71,14.25,14.25,0,0,0,2.24-3S46.37,4.35,45.5,4.59Z"/><text class="cls-2" transform="translate(0 55.41)">twitter</text></g></g></svg>